<?xml version="1.0" encoding="utf-8"?>
<!-- Generator: Adobe Illustrator 26.0.0, SVG Export Plug-In . SVG Version: 6.00 Build 0)  -->
<svg version="1.1" id="Layer_1" xmlns="http://www.w3.org/2000/svg" xmlns:xlink="http://www.w3.org/1999/xlink" x="0px" y="0px"
	 viewBox="0 0 171.7 79.9" style="enable-background:new 0 0 171.7 79.9;" xml:space="preserve">
<style type="text/css">
	.st0{fill:#FFFFFF;}
</style>
<path class="st0" d="M165,56.6c-1,0-1.9,0.3-2.7,0.8l-13.9-13.9h-30.9v-5.5h30.9l13.9-13.9c0.8,0.5,1.7,0.8,2.7,0.8c2.8,0,5-2.2,5-5
	s-2.3-5-5-5c-2.8,0-5,2.3-5,5c0,1.1,0.3,2,0.9,2.9l-13.3,13.3h-30.1v-5.6h20.8l6.2-6.2c0.8,0.5,1.7,0.8,2.6,0.8c2.8,0,5-2.2,5-5
	s-2.2-5-5-5c-2.8,0-5,2.3-5,5c0,1.1,0.3,2.1,0.9,2.9l-5.6,5.6h-20V23h8.5l15.6-15.6h13.2c0.5,2.3,2.5,4,4.9,4c2.8,0,5-2.2,5-5
	c0-2.8-2.2-5-5-5c-2.4,0-4.5,1.7-4.9,4h-14.1L125.2,21h-7.7v-0.5c0-6.7-5.4-12.1-12.1-12.1H67.3c-6.7,0-12.1,5.4-12.1,12.1V21h-7.7
	L31.9,5.4H17.8c-0.5-2.3-2.5-4-4.9-4c-2.8,0-5,2.2-5,5c0,2.8,2.3,5,5,5c2.4,0,4.5-1.7,4.9-4H31L46.6,23h8.6v5.3h-20l-5.6-5.6
	c0.6-0.8,0.9-1.8,0.9-2.9c0-2.8-2.2-5-5-5c-2.8,0-5,2.3-5,5s2.2,5,5,5c1,0,1.9-0.3,2.6-0.8l6.2,6.2h20.8v5.6H25L11.7,22.6
	c0.6-0.8,0.9-1.8,0.9-2.9c0-2.8-2.3-5-5-5c-2.8,0-5,2.3-5,5s2.3,5,5,5c1,0,1.9-0.3,2.7-0.8l13.9,13.9h31v5.5h-31L10.3,57.3
	c-0.8-0.5-1.7-0.8-2.7-0.8c-2.8,0-5,2.3-5,5c0,2.8,2.3,5,5,5c2.8,0,5-2.3,5-5c0-1.1-0.3-2-0.9-2.9L25,45.4h30.1v5.7H34.3l-6.2,6.2
	c-0.8-0.5-1.7-0.8-2.6-0.8c-2.8,0-5,2.3-5,5c0,2.8,2.2,5,5,5c2.8,0,5-2.3,5-5c0-1.1-0.3-2.1-0.9-2.9l5.6-5.6h20v5.2h-8.6L31,73.9
	H17.8c-0.5-2.3-2.5-4-4.9-4c-2.8,0-5,2.3-5,5c0,2.8,2.3,5,5,5c2.4,0,4.5-1.7,4.9-4h14.1l15.6-15.6h7.9c0.9,5.9,5.9,10.3,12,10.3
	h38.1c6.1,0,11.1-4.5,12-10.3h7.8l15.5,15.6h14.1c0.5,2.3,2.5,4,4.9,4c2.8,0,5-2.3,5-5c0-2.8-2.2-5-5-5c-2.4,0-4.5,1.7-4.9,4h-13.2
	L126,58.3h-8.5v-5.2h20l5.6,5.6c-0.6,0.8-0.9,1.8-0.9,2.9c0,2.8,2.3,5,5,5c2.8,0,5-2.3,5-5c0-2.8-2.2-5-5-5c-1,0-1.9,0.3-2.6,0.8
	l-6.2-6.2h-20.8v-5.7h30.1l13.3,13.3c-0.6,0.8-0.9,1.8-0.9,2.9c0,2.8,2.2,5,5,5c2.8,0,5-2.3,5-5C170,58.8,167.8,56.6,165,56.6z
	 M165,16.7c1.7,0,3,1.4,3,3s-1.4,3-3,3c-1.7,0-3-1.3-3-3S163.3,16.7,165,16.7z M147.1,16.7c1.7,0,3,1.4,3,3s-1.4,3-3,3
	c-1.7,0-3-1.3-3-3S145.5,16.7,147.1,16.7z M159.7,3.4c1.7,0,3,1.4,3,3s-1.4,3-3,3c-1.7,0-3-1.4-3-3S158,3.4,159.7,3.4z M12.9,9.4
	c-1.7,0-3-1.4-3-3s1.4-3,3-3s3,1.4,3,3S14.5,9.4,12.9,9.4z M25.5,22.7c-1.7,0-3-1.3-3-3s1.4-3,3-3c1.7,0,3,1.4,3,3
	S27.1,22.7,25.5,22.7z M7.6,22.7c-1.7,0-3-1.3-3-3s1.4-3,3-3c1.7,0,3,1.4,3,3S9.3,22.7,7.6,22.7z M7.6,64.6c-1.7,0-3-1.4-3-3
	s1.4-3,3-3c1.7,0,3,1.4,3,3S9.3,64.6,7.6,64.6z M25.5,64.6c-1.7,0-3-1.4-3-3s1.4-3,3-3c1.7,0,3,1.4,3,3S27.1,64.6,25.5,64.6z
	 M12.9,77.9c-1.7,0-3-1.4-3-3s1.4-3,3-3s3,1.4,3,3S14.5,77.9,12.9,77.9z M106.2,54.8c0,2.5-2.1,4.6-4.6,4.6H71
	c-2.6,0-4.6-2.1-4.6-4.6V24.2c0-2.5,2.1-4.6,4.6-4.6h30.6c2.6,0,4.6,2.1,4.6,4.6V54.8z M159.7,71.8c1.7,0,3,1.4,3,3s-1.4,3-3,3
	c-1.7,0-3-1.4-3-3S158,71.8,159.7,71.8z M147.1,58.6c1.7,0,3,1.4,3,3s-1.4,3-3,3c-1.7,0-3-1.4-3-3S145.5,58.6,147.1,58.6z M165,64.6
	c-1.7,0-3-1.4-3-3s1.4-3,3-3c1.7,0,3,1.4,3,3S166.7,64.6,165,64.6z"/>
<g>
	<circle class="st0" cx="86.3" cy="39.5" r="4.1"/>
	<path class="st0" d="M77,30.2v18.7h18.7V30.2H77z M86.3,45.6c-3.3,0-6.1-2.7-6.1-6.1c0-3.3,2.7-6.1,6.1-6.1c3.3,0,6.1,2.7,6.1,6.1
		C92.4,42.8,89.7,45.6,86.3,45.6z"/>
</g>
</svg>
