<?xml version="1.0" encoding="utf-8"?>
<!-- Generator: Adobe Illustrator 26.0.0, SVG Export Plug-In . SVG Version: 6.00 Build 0)  -->
<svg version="1.1" id="Layer_1" xmlns="http://www.w3.org/2000/svg" xmlns:xlink="http://www.w3.org/1999/xlink" x="0px" y="0px"
	 viewBox="0 0 16.5 18.9" style="enable-background:new 0 0 16.5 18.9;" xml:space="preserve">
<style type="text/css">
	.st0{fill:#010101;}
	.st1{fill:#C1272D;}
	.st2{fill:none;}
	.st3{fill:#FFFFFF;}
</style>
<g>
	<g>
		<path class="st0" d="M16.3,6.1c0,6-3,10-8,12.6C3.4,16,0.2,11.7,0.2,5.8c0-0.8,0-4.1,0-4.9c1,0.4,2.1,0.6,3.3,0.6
			c1.7,0,3.3-0.5,4.7-1.3c1.4,0.8,3,1.3,4.7,1.3c1.3,0,2.4-0.3,3.5-0.7C16.3,2.3,16.3,5.2,16.3,6.1z"/>
		<path class="st1" d="M8.3,18.9C8.3,18.9,8.2,18.8,8.3,18.9C2.8,16,0,11.4,0,5.8l0-1.1c0-1.3,0-3.3,0-3.8c0-0.1,0-0.1,0.1-0.2
			c0.1,0,0.1,0,0.2,0c1,0.4,2.1,0.6,3.2,0.6C5.1,1.3,6.7,0.8,8,0c0.1,0,0.1,0,0.2,0c1.4,0.8,2.9,1.2,4.6,1.2c1.2,0,2.3-0.2,3.4-0.7
			c0.1,0,0.1,0,0.2,0c0.1,0,0.1,0.1,0.1,0.2v5.3C16.5,11.8,13.8,15.9,8.3,18.9C8.4,18.8,8.3,18.9,8.3,18.9z M0.4,1.1
			c0,0.8,0,2.4,0,3.6l0,1.1c0,5.5,2.7,9.9,7.9,12.7c5.2-2.8,7.8-6.9,7.8-12.4V1c-1.1,0.4-2.2,0.6-3.3,0.6c-1.6,0-3.2-0.4-4.7-1.2
			c-1.4,0.8-3,1.2-4.7,1.2C2.4,1.6,1.4,1.5,0.4,1.1z"/>
	</g>
	<g>
		<path class="st1" d="M9.8,4.5C9.3,4.5,9,4.1,9,3.7s0.4-0.8,0.8-0.8c0.4,0,0.8,0.4,0.8,0.8S10.2,4.5,9.8,4.5z M9.8,3.3
			c-0.2,0-0.4,0.2-0.4,0.4c0,0.2,0.2,0.4,0.4,0.4c0.2,0,0.4-0.2,0.4-0.4C10.2,3.5,10,3.3,9.8,3.3z"/>
	</g>
	<g>
		<path class="st1" d="M13.9,7.7c-0.4,0-0.8-0.4-0.8-0.8c0-0.4,0.4-0.8,0.8-0.8c0.4,0,0.8,0.4,0.8,0.8C14.7,7.3,14.4,7.7,13.9,7.7z
			 M13.9,6.5c-0.2,0-0.4,0.2-0.4,0.4c0,0.2,0.2,0.4,0.4,0.4c0.2,0,0.4-0.2,0.4-0.4C14.4,6.7,14.2,6.5,13.9,6.5z"/>
	</g>
	<g>
		<path class="st1" d="M2.3,10.2c-0.4,0-0.8-0.4-0.8-0.8c0-0.4,0.4-0.8,0.8-0.8S3.1,9,3.1,9.4C3.1,9.9,2.7,10.2,2.3,10.2z M2.3,9
			C2.1,9,1.9,9.2,1.9,9.4c0,0.2,0.2,0.4,0.4,0.4s0.4-0.2,0.4-0.4C2.7,9.2,2.5,9,2.3,9z"/>
	</g>
	<g>
		<path class="st2" d="M8.8,13.1c0,0.2,0.2,0.4,0.4,0.4c0.2,0,0.4-0.2,0.4-0.4c0-0.2-0.2-0.4-0.4-0.4C9,12.7,8.8,12.9,8.8,13.1z"/>
		<path class="st2" d="M7.5,8.6c0,0,0.1,0,0.1,0C7.6,8.6,7.6,8.6,7.5,8.6z"/>
		<path class="st2" d="M7.4,8.6c0,0,0.1,0,0.1,0C7.5,8.6,7.5,8.6,7.4,8.6z"/>
		<path class="st2" d="M9.2,12.4c0,0,0.1,0,0.1,0C9.3,12.4,9.2,12.4,9.2,12.4z"/>
		<path class="st2" d="M9.1,12.4c0,0,0.1,0,0.1,0C9.1,12.4,9.1,12.4,9.1,12.4z"/>
		<path class="st2" d="M8.8,0.7V2l0,0.1L8,3.1v1.2l1.3,1.5l0,0.1v6.5c0.4,0.1,0.6,0.4,0.6,0.8c0,0.4-0.4,0.8-0.8,0.8
			c-0.4,0-0.8-0.4-0.8-0.8c0-0.4,0.2-0.7,0.6-0.8V6L7.7,4.5l0-0.1V3l0-0.1l0.7-1V0.6c-0.1,0-0.2-0.1-0.3-0.1C7.6,0.7,7.1,1,6.5,1.1
			v3.7l1.2,1.4l0,0.1v2.3h0c0.3,0.1,0.6,0.4,0.6,0.8c0,0.4-0.4,0.8-0.8,0.8c-0.4,0-0.8-0.4-0.8-0.8c0-0.4,0.3-0.7,0.6-0.8h0V6.4
			L6.2,5l0-0.1V1.3C5.3,1.5,4.4,1.6,3.5,1.6c-1.1,0-2.1-0.2-3.1-0.5c0,0.8,0,2.4,0,3.6l0,1.1c0,5.5,2.7,9.9,7.9,12.7
			c5.2-2.8,7.8-6.9,7.8-12.4V1c-1.1,0.4-2.2,0.6-3.3,0.6C11.4,1.6,10,1.3,8.8,0.7z"/>
		<path class="st2" d="M7.5,9C7.3,9,7.1,9.2,7.1,9.4c0,0.2,0.2,0.4,0.4,0.4c0.2,0,0.4-0.2,0.4-0.4C7.9,9.2,7.8,9,7.5,9z"/>
		<path class="st3" d="M9.3,12.4c0,0-0.1,0-0.1,0c0,0-0.1,0-0.1,0c0,0-0.1,0-0.1,0l0,0c-0.3,0.1-0.6,0.4-0.6,0.8
			c0,0.4,0.4,0.8,0.8,0.8c0.4,0,0.8-0.4,0.8-0.8C10,12.8,9.7,12.5,9.3,12.4L9.3,12.4C9.3,12.4,9.3,12.4,9.3,12.4z M9.6,13.1
			c0,0.2-0.2,0.4-0.4,0.4c-0.2,0-0.4-0.2-0.4-0.4c0-0.2,0.2-0.4,0.4-0.4C9.4,12.7,9.6,12.9,9.6,13.1z"/>
		<path class="st3" d="M7.7,2.9l0,0.1v1.4l0,0.1L9,6v6.4l0,0c0,0,0.1,0,0.1,0c0,0,0.1,0,0.1,0c0,0,0.1,0,0.1,0c0,0,0,0,0,0l0,0V5.9
			l0-0.1L8,4.3V3.1l0.7-1l0-0.1V0.7C8.7,0.7,8.5,0.6,8.4,0.6V2L7.7,2.9z"/>
		<path class="st3" d="M7.5,8.6c0,0-0.1,0-0.1,0c0,0,0,0-0.1,0C7,8.7,6.7,9.1,6.7,9.4c0,0.4,0.4,0.8,0.8,0.8c0.4,0,0.8-0.4,0.8-0.8
			c0-0.4-0.3-0.7-0.6-0.8c0,0,0,0-0.1,0C7.6,8.6,7.6,8.6,7.5,8.6z M7.5,9.8c-0.2,0-0.4-0.2-0.4-0.4C7.1,9.2,7.3,9,7.5,9
			c0.2,0,0.4,0.2,0.4,0.4C7.9,9.7,7.8,9.8,7.5,9.8z"/>
		<path class="st3" d="M6.2,5l1.2,1.4v2.2h0c0,0,0,0,0.1,0c0,0,0.1,0,0.1,0c0,0,0.1,0,0.1,0c0,0,0,0,0.1,0h0V6.4l0-0.1L6.5,4.8V1.1
			c-0.1,0-0.3,0.1-0.4,0.1v3.7L6.2,5z"/>
	</g>
	<g>
		<path class="st2" d="M7.6,15.9C7.6,15.9,7.6,15.9,7.6,15.9C7.6,15.9,7.6,15.9,7.6,15.9z"/>
		<path class="st2" d="M8.3,16.7c0.2,0,0.4-0.2,0.4-0.4c0-0.2-0.2-0.4-0.4-0.4c-0.2,0-0.4,0.2-0.4,0.4C7.9,16.6,8.1,16.7,8.3,16.7z"
			/>
		<path class="st2" d="M7.6,16C7.6,16,7.6,16,7.6,16C7.6,16,7.6,16,7.6,16z"/>
		<path class="st2" d="M8.1,0.4c-0.9,0.5-1.8,0.8-2.8,1v4.9l0.8,0.9l0,0.1v7.2l1.6,1.2l0,0c0.1-0.1,0.3-0.2,0.5-0.2
			c0.4,0,0.8,0.4,0.8,0.8c0,0.4-0.4,0.8-0.8,0.8c-0.4,0-0.8-0.4-0.8-0.8c0-0.1,0-0.2,0.1-0.3l-1.7-1.2l-0.1-0.2V7.4L5,6.5l0-0.1V1.5
			C4.5,1.6,4,1.6,3.5,1.6c-1.1,0-2.1-0.2-3.1-0.5c0,0.8,0,2.4,0,3.6l0,1.1c0,5.5,2.7,9.9,7.9,12.7c5.2-2.8,7.8-6.9,7.8-12.4V1
			c-1.1,0.4-2.2,0.6-3.3,0.6C11.2,1.6,9.6,1.2,8.1,0.4z"/>
		<path class="st3" d="M7.7,15.9C7.6,15.9,7.6,15.9,7.7,15.9C7.6,15.9,7.6,15.9,7.7,15.9C7.6,16,7.6,16,7.6,16c0,0,0,0,0,0l0,0
			c0,0.1-0.1,0.2-0.1,0.3c0,0.4,0.4,0.8,0.8,0.8c0.4,0,0.8-0.4,0.8-0.8c0-0.4-0.4-0.8-0.8-0.8c-0.2,0-0.4,0.1-0.5,0.2
			C7.7,15.8,7.7,15.8,7.7,15.9z M8.3,15.9c0.2,0,0.4,0.2,0.4,0.4c0,0.2-0.2,0.4-0.4,0.4c-0.2,0-0.4-0.2-0.4-0.4
			C7.9,16.1,8.1,15.9,8.3,15.9z"/>
		<path class="st3" d="M5,6.5l0.8,0.9v7.3l0.1,0.2L7.5,16l0,0c0,0,0,0,0,0c0,0,0,0,0-0.1c0,0,0,0,0-0.1c0,0,0,0,0,0
			c0,0,0.1-0.1,0.1-0.1l0,0l-1.6-1.2V7.3l0-0.1L5.4,6.3V1.4c-0.1,0-0.3,0-0.4,0.1v4.9L5,6.5z"/>
	</g>
	<g>
		<path class="st2" d="M4.4,10.9c0,0,0.1,0,0.1,0C4.5,11,4.5,10.9,4.4,10.9z"/>
		<path class="st2" d="M4.4,11.3c-0.2,0-0.4,0.2-0.4,0.4c0,0.2,0.2,0.4,0.4,0.4c0.2,0,0.4-0.2,0.4-0.4C4.9,11.5,4.7,11.3,4.4,11.3z"
			/>
		<path class="st2" d="M4.3,11c0,0,0.1,0,0.1,0C4.4,10.9,4.4,11,4.3,11z"/>
		<path class="st2" d="M8.1,0.4C6.8,1.2,5.3,1.6,3.8,1.6v6.1l0.8,0.9l0.1,0.1V11h0c0.3,0.1,0.6,0.4,0.6,0.8c0,0.4-0.4,0.8-0.8,0.8
			c-0.4,0-0.8-0.4-0.8-0.8c0-0.4,0.3-0.7,0.6-0.8h0V8.8L3.4,7.9L3.4,7.8V1.6c-1,0-2-0.2-3-0.5c0,0.8,0,2.4,0,3.6l0,1.1
			c0,5.5,2.7,9.9,7.9,12.7c5.2-2.8,7.8-6.9,7.8-12.4V1c-1.1,0.4-2.2,0.6-3.3,0.6C11.2,1.6,9.6,1.2,8.1,0.4z"/>
		<path class="st3" d="M4.4,10.9c0,0-0.1,0-0.1,0c0,0,0,0-0.1,0c-0.3,0.1-0.6,0.4-0.6,0.8c0,0.4,0.4,0.8,0.8,0.8
			c0.4,0,0.8-0.4,0.8-0.8c0-0.4-0.3-0.7-0.6-0.8c0,0,0,0-0.1,0C4.5,11,4.5,10.9,4.4,10.9z M4.4,12.1C4.2,12.1,4,12,4,11.7
			c0-0.2,0.2-0.4,0.4-0.4c0.2,0,0.4,0.2,0.4,0.4C4.9,12,4.7,12.1,4.4,12.1z"/>
		<path class="st3" d="M3.4,7.9l0.8,0.9V11h0c0,0,0,0,0.1,0c0,0,0.1,0,0.1,0c0,0,0.1,0,0.1,0c0,0,0,0,0.1,0h0V8.7L4.6,8.6L3.8,7.7
			V1.6c-0.1,0-0.2,0-0.3,0c0,0-0.1,0-0.1,0v6.1L3.4,7.9z"/>
	</g>
	<g>
		<path class="st2" d="M2.1,4.5c-0.2,0-0.4,0.2-0.4,0.4c0,0.2,0.2,0.4,0.4,0.4c0.2,0,0.4-0.2,0.4-0.4C2.5,4.7,2.3,4.5,2.1,4.5z"/>
		<path class="st2" d="M2.1,4.2c0,0,0.1,0,0.1,0C2.2,4.2,2.1,4.2,2.1,4.2z"/>
		<path class="st2" d="M2,4.2c0,0,0.1,0,0.1,0C2.1,4.2,2,4.2,2,4.2z"/>
		<path class="st2" d="M8.1,0.4c-1.4,0.8-3,1.2-4.7,1.2c-0.4,0-0.8,0-1.2-0.1v2.6h0c0.3,0.1,0.6,0.4,0.6,0.8c0,0.4-0.4,0.8-0.8,0.8
			c-0.4,0-0.8-0.4-0.8-0.8c0-0.4,0.3-0.7,0.6-0.8h0V1.5c-0.5-0.1-1-0.2-1.5-0.4c0,0.8,0,2.4,0,3.6l0,1.1c0,5.5,2.7,9.9,7.9,12.7
			c5.2-2.8,7.8-6.9,7.8-12.4V1c-1.1,0.4-2.2,0.6-3.3,0.6C11.2,1.6,9.6,1.2,8.1,0.4z"/>
		<path class="st3" d="M2.1,4.2c0,0-0.1,0-0.1,0c0,0,0,0-0.1,0C1.6,4.3,1.3,4.6,1.3,4.9c0,0.4,0.4,0.8,0.8,0.8
			c0.4,0,0.8-0.4,0.8-0.8c0-0.4-0.3-0.7-0.6-0.8c0,0,0,0-0.1,0C2.2,4.2,2.1,4.2,2.1,4.2z M2.1,5.3c-0.2,0-0.4-0.2-0.4-0.4
			c0-0.2,0.2-0.4,0.4-0.4c0.2,0,0.4,0.2,0.4,0.4C2.5,5.2,2.3,5.3,2.1,5.3z"/>
		<path class="st3" d="M1.9,4.2C1.9,4.2,2,4.2,1.9,4.2c0.1,0,0.1,0,0.2,0s0.1,0,0.1,0c0,0,0,0,0.1,0h0V1.6c-0.1,0-0.3,0-0.4-0.1
			L1.9,4.2L1.9,4.2z"/>
		<path class="st1" d="M2.1,1.1C2.1,1.1,2.1,1.1,2.1,1.1C2.1,1.1,2.1,1.1,2.1,1.1C2.1,1.1,2.1,1.1,2.1,1.1z"/>
	</g>
</g>
</svg>
