<svg width="663" height="300" viewBox="0 0 663 300" fill="none" xmlns="http://www.w3.org/2000/svg">
<path d="M87.6701 196.47V191.87L201.8 48.7051H207.549V191.295H242.622V196.47H207.549V251.091H201.8V196.47H87.6701ZM201.8 57.9045L94.8571 191.295H201.8V57.9045ZM267.12 149.323C267.12 127.666 268.845 109.459 272.295 94.7019C275.745 79.9446 282.165 68.2538 291.556 59.6294C300.947 51.005 314.267 46.6928 331.516 46.6928C348.573 46.6928 361.797 51.005 371.188 59.6294C380.771 68.2538 387.287 80.0404 390.737 94.9894C394.186 109.747 395.911 127.858 395.911 149.323C395.911 171.171 394.186 189.57 390.737 204.519C387.287 219.468 380.771 231.351 371.188 240.167C361.797 248.791 348.573 253.103 331.516 253.103C314.267 253.103 300.947 248.791 291.556 240.167C282.165 231.351 275.745 219.468 272.295 204.519C268.845 189.57 267.12 171.171 267.12 149.323ZM390.162 149.323C390.162 128.624 388.628 111.28 385.562 97.2892C382.495 83.2985 376.65 72.2785 368.026 64.229C359.593 55.988 347.423 51.8674 331.516 51.8674C315.609 51.8674 303.343 55.988 294.718 64.229C286.286 72.2785 280.536 83.2985 277.47 97.2892C274.403 111.28 272.87 128.624 272.87 149.323C272.87 170.213 274.403 187.749 277.47 201.932C280.536 216.114 286.286 227.326 294.718 235.567C303.343 243.808 315.609 247.929 331.516 247.929C347.423 247.929 359.593 243.808 368.026 235.567C376.65 227.326 382.495 216.114 385.562 201.932C388.628 187.749 390.162 170.213 390.162 149.323ZM421.753 196.47V191.87L535.882 48.7051H541.632V191.295H576.704V196.47H541.632V251.091H535.882V196.47H421.753ZM535.882 57.9045L428.94 191.295H535.882V57.9045Z" fill="#461BFF"/>
<circle cx="307.5" cy="116.5" r="3.5" fill="#461BFF"/>
<circle cx="354.5" cy="116.5" r="3.5" fill="#461BFF"/>
<path d="M301 181V181C315.334 158.911 347.666 158.911 362 181V181" stroke="#461BFF" stroke-width="6"/>
</svg>
