<svg width="20" height="20" viewBox="0 0 20 20" fill="none" xmlns="http://www.w3.org/2000/svg">
<path d="M2.5 7.5V15C2.5 16.3808 3.61917 17.5 5 17.5H15C16.3808 17.5 17.5 16.3808 17.5 15V7.5" stroke="#461BFF" stroke-width="1.5" stroke-linecap="round" stroke-linejoin="round"/>
<path fill-rule="evenodd" clip-rule="evenodd" d="M3.6649 5.63749L8.54906 2.13499C9.41989 1.50999 10.5924 1.51082 11.4632 2.13582L16.3266 5.62832C17.8841 6.74666 17.8832 8.57582 16.3249 9.69249L11.4499 13.1883C10.5791 13.8133 9.40656 13.8125 8.53573 13.1875L3.66323 9.68832C2.11156 8.57332 2.1124 6.75082 3.6649 5.63749Z" stroke="#461BFF" stroke-width="1.5" stroke-linecap="round" stroke-linejoin="round"/>
<path d="M15.002 10.6417V9.16667C15.002 8.24583 14.2561 7.5 13.3353 7.5H6.66862C5.74779 7.5 5.00195 8.24583 5.00195 9.16667V10.6042" stroke="#461BFF" stroke-width="1.5" stroke-linecap="round" stroke-linejoin="round"/>
</svg>
