<svg width="20" height="20" viewBox="0 0 20 20" fill="none" xmlns="http://www.w3.org/2000/svg">
<path fill-rule="evenodd" clip-rule="evenodd" d="M13.3333 17.5H6.66667C5.74583 17.5 5 16.7542 5 15.8333V4.16667C5 3.24583 5.74583 2.5 6.66667 2.5H13.3333C14.2542 2.5 15 3.24583 15 4.16667V15.8333C15 16.7542 14.2542 17.5 13.3333 17.5Z" stroke="#16D38F" stroke-width="1.5" stroke-linecap="round" stroke-linejoin="round"/>
<path opacity="0.5" d="M9.99982 14.375C9.88482 14.375 9.79149 14.4683 9.79232 14.5833C9.79232 14.6983 9.88565 14.7916 10.0007 14.7916C10.1157 14.7916 10.209 14.6983 10.209 14.5833C10.209 14.4683 10.1157 14.375 9.99982 14.375" stroke="#16D38F" stroke-width="1.5" stroke-linecap="round" stroke-linejoin="round"/>
<path opacity="0.5" d="M8.95898 5.00004H11.0423" stroke="#16D38F" stroke-width="1.5" stroke-linecap="round" stroke-linejoin="round"/>
</svg>
