<svg width="89" height="89" viewBox="0 0 89 89" fill="none" xmlns="http://www.w3.org/2000/svg">
<path d="M19.6384 42.2498L22.2957 39.5925L19.1133 36.4102L16.456 39.0675C13.9491 41.5713 12.3551 44.8441 11.9293 48.3615C11.5035 51.879 12.2705 55.4376 14.1074 58.4673L17.4393 55.1354C16.4326 53.0244 16.1051 50.6534 16.5018 48.3486C16.8984 46.0438 17.9998 43.9187 19.6543 42.2658L19.6384 42.2498Z" fill="#00F19A"/>
<path d="M54.9821 61.9087L57.6394 64.566L54.457 67.7484L51.7997 65.0911C49.2929 62.5872 47.6989 59.3145 47.2731 55.797C46.8472 52.2796 47.6142 48.721 49.4511 45.6913L52.7831 49.0232C51.7764 51.1341 51.4488 53.5052 51.8455 55.81C52.2422 58.1148 53.3436 60.2399 54.998 61.8928L54.9821 61.9087Z" fill="#461BFF"/>
<path d="M64.6642 28.1645L67.3215 30.8218L70.5039 27.6394L67.8466 24.9821C65.3427 22.4753 62.07 20.8813 58.5525 20.4554C55.0351 20.0296 51.4765 20.7966 48.4467 22.6335L51.7787 25.9655C53.8896 24.9588 56.2607 24.6312 58.5655 25.0279C60.8703 25.4245 62.9954 26.5259 64.6483 28.1804L64.6642 28.1645Z" fill="#461BFF"/>
<path d="M25.377 21.9981L34.9688 31.5898L38.1671 28.3915L28.5753 18.7998L25.377 21.9981Z" fill="#00F19A"/>
<path d="M82.1515 36.4315L75.3691 48.179L79.2862 50.4405L86.0686 38.6931L82.1515 36.4315Z" fill="#461BFF"/>
<circle cx="34.4057" cy="72.7595" r="6.38089" transform="rotate(135 34.4057 72.7595)" fill="#461BFF"/>
</svg>
