<svg width="20" height="20" viewBox="0 0 20 20" fill="none" xmlns="http://www.w3.org/2000/svg">
<path fill-rule="evenodd" clip-rule="evenodd" d="M2.5 5.66663V5.66663C2.5 6.16663 2.75 6.58329 3.16667 6.91663L8.16667 10.3333C9.33333 11.0833 10.75 11.0833 11.9167 10.3333L16.9167 6.99996C17.25 6.58329 17.5 6.16663 17.5 5.66663V5.66663C17.5 4.83329 16.8333 4.16663 16 4.16663H4C3.16667 4.16663 2.5 4.83329 2.5 5.66663Z" stroke="#16D38F" stroke-width="1.5" stroke-linecap="round" stroke-linejoin="round"/>
<path d="M2.5 5.83325V14.1666C2.5 15.0833 3.25 15.8333 4.16667 15.8333H15.8333C16.75 15.8333 17.5 15.0833 17.5 14.1666V5.83325" stroke="#16D38F" stroke-width="1.5" stroke-linecap="round" stroke-linejoin="round"/>
<path opacity="0.5" d="M2.99023 15.3433L8.06857 10.265" stroke="#16D38F" stroke-width="1.5" stroke-linecap="round" stroke-linejoin="round"/>
<path opacity="0.5" d="M11.9668 10.2999L17.0101 15.3433" stroke="#16D38F" stroke-width="1.5" stroke-linecap="round" stroke-linejoin="round"/>
</svg>
