<svg width="40" height="36" viewBox="0 0 40 36" fill="none" xmlns="http://www.w3.org/2000/svg">
<path d="M11.9208 4.48604C11.8548 4.48515 11.7904 4.465 11.7357 4.42806C11.6809 4.39113 11.6381 4.33901 11.6125 4.27811L9.91318 0.47792C9.89261 0.437112 9.88101 0.392374 9.87917 0.346713C9.87732 0.301051 9.88527 0.255523 9.90247 0.213187C9.91968 0.170851 9.94575 0.132688 9.97892 0.10126C10.0121 0.0698328 10.0516 0.0458695 10.0948 0.0309799C10.1733 -0.00550986 10.2629 -0.00994263 10.3446 0.0186247C10.4263 0.047192 10.4936 0.106505 10.5322 0.183943L12.2315 4.02237C12.2505 4.06273 12.2608 4.1066 12.2618 4.15117C12.2628 4.19574 12.2544 4.24002 12.2373 4.28119C12.2202 4.32236 12.1947 4.35951 12.1625 4.39026C12.1302 4.421 12.0918 4.44467 12.0499 4.45975C12.026 4.48604 11.9734 4.48604 11.9208 4.48604Z" fill="#00F19A"/>
<path d="M6.10567 8.50129C6.05064 8.49708 5.9974 8.47988 5.95031 8.4511L2.70462 6.69202C2.66561 6.67014 2.63131 6.64077 2.60369 6.60558C2.57607 6.5704 2.55567 6.53011 2.54368 6.48702C2.53169 6.44393 2.52833 6.39889 2.5338 6.3545C2.53927 6.31011 2.55346 6.26724 2.57556 6.22835C2.59671 6.18862 2.62571 6.1536 2.66081 6.12542C2.6959 6.09724 2.73636 6.07648 2.77972 6.06441C2.82308 6.05234 2.86844 6.04921 2.91305 6.05521C2.95766 6.0612 3.00059 6.0762 3.03923 6.09929L6.25863 7.88705C6.29861 7.90794 6.33388 7.93681 6.36226 7.97188C6.39064 8.00695 6.41152 8.04746 6.42362 8.09092C6.43571 8.13438 6.43877 8.17986 6.43259 8.22454C6.42641 8.26923 6.41113 8.31217 6.38769 8.35072C6.36 8.40015 6.31871 8.44061 6.26872 8.46729C6.21874 8.49398 6.16215 8.50578 6.10567 8.50129Z" fill="#00F19A"/>
<path d="M4.22323 13.781H0.334608C0.245864 13.781 0.160755 13.7458 0.0980043 13.683C0.0352532 13.6203 0 13.5352 0 13.4464C0 13.3577 0.0352532 13.2726 0.0980043 13.2098C0.160755 13.1471 0.245864 13.1118 0.334608 13.1118H4.22323C4.3114 13.1136 4.39544 13.1495 4.4578 13.2118C4.52016 13.2742 4.556 13.3583 4.55783 13.4464C4.55916 13.4907 4.55141 13.5348 4.53506 13.576C4.51871 13.6172 4.49411 13.6546 4.46277 13.686C4.43144 13.7173 4.39402 13.7419 4.35282 13.7583C4.31163 13.7746 4.26753 13.7824 4.22323 13.781Z" fill="#00F19A"/>
<path d="M27.8942 5.43729C27.8495 5.44388 27.8038 5.43458 27.7652 5.411C27.7243 5.39453 27.6871 5.37005 27.6559 5.33898C27.6246 5.30792 27.5999 5.27091 27.5832 5.23014C27.5665 5.18937 27.5582 5.14567 27.5586 5.10161C27.5591 5.05755 27.5684 5.01403 27.5859 4.97362L29.2852 1.16148C29.3022 1.12083 29.327 1.08393 29.3582 1.05286C29.3894 1.02179 29.4264 0.99718 29.4672 0.980424C29.5079 0.963668 29.5515 0.955097 29.5956 0.955201C29.6396 0.955305 29.6832 0.964082 29.7238 0.981031C29.7645 0.99798 29.8014 1.02277 29.8324 1.05398C29.8635 1.08519 29.8881 1.12222 29.9049 1.16295C29.9216 1.20367 29.9302 1.2473 29.9301 1.29134C29.93 1.33537 29.9212 1.37896 29.9043 1.41961L28.2049 5.24369C28.1768 5.3021 28.1327 5.35132 28.0777 5.3856C28.0227 5.41988 27.9591 5.4378 27.8942 5.43729Z" fill="#00F19A"/>
<path d="M33.7135 9.45493C33.6249 9.45308 33.5405 9.41691 33.4781 9.35404C33.4157 9.29117 33.3801 9.20652 33.3789 9.11793C33.3831 9.05595 33.4017 8.9958 33.4332 8.94228C33.4648 8.88875 33.5084 8.84333 33.5605 8.80962L36.8062 7.0601C36.8451 7.03684 36.8882 7.02157 36.933 7.01521C36.9778 7.00885 37.0234 7.01151 37.0672 7.02305C37.1109 7.03458 37.1519 7.05475 37.1878 7.08237C37.2237 7.10999 37.2536 7.1445 37.2759 7.18388C37.2982 7.22325 37.3125 7.26669 37.3177 7.31164C37.323 7.35659 37.3193 7.40214 37.3067 7.44561C37.2941 7.48909 37.2729 7.5296 37.2445 7.56478C37.216 7.59996 37.1808 7.62908 37.1409 7.65044L33.8713 9.42864C33.8217 9.4504 33.7675 9.45944 33.7135 9.45493Z" fill="#00F19A"/>
<path d="M39.4849 14.7584H35.5963C35.5076 14.7584 35.4225 14.7232 35.3597 14.6604C35.297 14.5977 35.2617 14.5126 35.2617 14.4238C35.2617 14.3351 35.297 14.25 35.3597 14.1872C35.4225 14.1245 35.5076 14.0892 35.5963 14.0892H39.4849C39.5731 14.0911 39.6572 14.1269 39.7195 14.1893C39.7819 14.2516 39.8177 14.3357 39.8196 14.4238C39.8209 14.4681 39.8131 14.5122 39.7968 14.5534C39.7804 14.5946 39.7558 14.6321 39.7245 14.6634C39.6932 14.6947 39.6557 14.7193 39.6145 14.7357C39.5733 14.752 39.5292 14.7598 39.4849 14.7584Z" fill="#00F19A"/>
<path d="M15.969 14.5458C15.9202 14.546 15.8717 14.5379 15.8256 14.5219L15.6702 14.4717C15.6033 14.4496 15.5427 14.4119 15.4934 14.3617L15.4671 14.3402C15.3881 14.2603 15.3416 14.154 15.3364 14.0418C15.3313 13.9296 15.3679 13.8194 15.4392 13.7327C15.5106 13.6459 15.6115 13.5886 15.7226 13.5719C15.8337 13.5552 15.947 13.5803 16.0407 13.6423L16.1124 13.6638C16.216 13.6969 16.3044 13.7661 16.3613 13.8588C16.4183 13.9515 16.44 14.0616 16.4227 14.169C16.4053 14.2764 16.3499 14.374 16.2667 14.444C16.1834 14.514 16.0778 14.5518 15.969 14.5505V14.5458Z" fill="white"/>
<path d="M16.2782 13.4655C16.2007 13.4651 16.1246 13.4449 16.057 13.407C15.9895 13.369 15.9327 13.3144 15.892 13.2484C15.8514 13.1824 15.8282 13.1072 15.8247 13.0297C15.8212 12.9523 15.8374 12.8753 15.8719 12.8059L17.306 9.93779C17.3101 9.92672 17.3157 9.91626 17.3227 9.90672C17.4305 9.72373 17.5706 9.56178 17.7362 9.42871C17.8312 9.35328 17.9524 9.31871 18.073 9.3326C18.1935 9.3465 18.3037 9.40772 18.3791 9.5028C18.4545 9.59788 18.4891 9.71904 18.4752 9.83961C18.4613 9.96018 18.4001 10.0703 18.305 10.1457C18.2277 10.2102 18.1615 10.2869 18.109 10.3728L16.675 13.2146C16.638 13.2886 16.5815 13.3511 16.5115 13.3953C16.4416 13.4395 16.3609 13.4638 16.2782 13.4655Z" fill="white"/>
<path d="M15.9676 20.7002C15.8623 20.7005 15.7601 20.6642 15.6785 20.5975C15.597 20.5308 15.5412 20.4378 15.5207 20.3345C15.4667 20.0437 15.4554 19.7466 15.4872 19.4526L15.4609 14.118C15.461 14.033 15.4847 13.9498 15.5294 13.8776C15.5742 13.8054 15.6382 13.7471 15.7143 13.7093L15.9174 13.6065C16.0258 13.5537 16.1504 13.5455 16.2647 13.5834C16.3791 13.6214 16.474 13.7026 16.5293 13.8096C16.5791 13.9093 16.5905 14.0237 16.5615 14.1313C16.5324 14.2388 16.4648 14.3319 16.3715 14.3928L16.3954 19.4717C16.3966 19.4876 16.3966 19.5036 16.3954 19.5195C16.3709 19.732 16.3774 19.947 16.4146 20.1576C16.4264 20.216 16.4265 20.2762 16.415 20.3346C16.4035 20.3931 16.3805 20.4487 16.3474 20.4982C16.3143 20.5478 16.2718 20.5903 16.2222 20.6233C16.1726 20.6563 16.1169 20.6792 16.0585 20.6906C16.0287 20.6975 15.9982 20.7007 15.9676 20.7002Z" fill="white"/>
<path d="M17.4083 14.4693H14.165H14.1005C13.9455 14.4383 13.8002 14.3705 13.6769 14.2716C13.5537 14.1726 13.456 14.0455 13.3923 13.9009C13.3285 13.7562 13.3005 13.5984 13.3106 13.4406C13.3207 13.2829 13.3687 13.1299 13.4504 12.9946C13.5208 12.8836 13.6135 12.7883 13.7224 12.7147C13.8314 12.641 13.9544 12.5907 14.0837 12.5668C14.1108 12.5643 14.138 12.5643 14.165 12.5668H17.4083C17.4709 12.5623 17.5337 12.5707 17.5929 12.5915C17.652 12.6123 17.7063 12.6451 17.7522 12.6878C17.7981 12.7306 17.8348 12.7823 17.8598 12.8398C17.8849 12.8973 17.8978 12.9594 17.8978 13.0221C17.8978 13.0848 17.8849 13.1469 17.8598 13.2044C17.8348 13.2619 17.7981 13.3136 17.7522 13.3564C17.7063 13.3991 17.652 13.4319 17.5929 13.4527C17.5337 13.4735 17.4709 13.4819 17.4083 13.4774H14.2391C14.2128 13.5037 14.2152 13.5156 14.2176 13.5204C14.2204 13.5387 14.2278 13.556 14.2391 13.5706H17.4083C17.4709 13.5661 17.5337 13.5745 17.5929 13.5953C17.652 13.6161 17.7063 13.6489 17.7522 13.6917C17.7981 13.7344 17.8348 13.7861 17.8598 13.8436C17.8849 13.9011 17.8978 13.9632 17.8978 14.0259C17.8978 14.0886 17.8849 14.1507 17.8598 14.2082C17.8348 14.2657 17.7981 14.3175 17.7522 14.3602C17.7063 14.4029 17.652 14.4357 17.5929 14.4565C17.5337 14.4774 17.4709 14.4858 17.4083 14.4812V14.4693Z" fill="white"/>
<path d="M17.2789 25.0262C17.2118 25.0262 17.1456 25.0114 17.0848 24.9829C17.0241 24.9544 16.9704 24.9129 16.9276 24.8612L15.6154 23.2647C15.5775 23.2185 15.5489 23.1654 15.5315 23.1082C15.5141 23.0511 15.5081 22.991 15.5138 22.9315C15.5196 22.8721 15.537 22.8143 15.5651 22.7616C15.5932 22.7088 15.6314 22.6621 15.6776 22.6241C15.7237 22.5862 15.7769 22.5577 15.834 22.5402C15.8912 22.5228 15.9512 22.5168 16.0107 22.5226C16.0702 22.5283 16.128 22.5458 16.1807 22.5739C16.2334 22.6019 16.2801 22.6401 16.3181 22.6863L17.2741 23.8574L19.5758 21.0634C19.6525 20.9703 19.763 20.9114 19.8832 20.8997C20.0033 20.8881 20.1231 20.9246 20.2163 21.0013C20.3095 21.078 20.3684 21.1886 20.38 21.3087C20.3917 21.4288 20.3551 21.5487 20.2784 21.6418L17.6302 24.8565C17.5881 24.9092 17.5346 24.9518 17.4738 24.9812C17.413 25.0106 17.3464 25.0259 17.2789 25.0262Z" fill="white"/>
<path d="M14.6523 21.2929C14.532 21.2923 14.4169 21.2443 14.3319 21.1592C14.2468 21.0742 14.1988 20.9591 14.1982 20.8388L14.1719 14.0152C14.1719 13.8946 14.2196 13.7788 14.3047 13.6933C14.3898 13.6077 14.5053 13.5593 14.626 13.5587C14.7462 13.5593 14.8614 13.6074 14.9464 13.6924C15.0314 13.7774 15.0795 13.8926 15.0801 14.0128L15.1064 20.8364C15.1064 20.9571 15.0586 21.0728 14.9735 21.1584C14.8884 21.2439 14.7729 21.2923 14.6523 21.2929Z" fill="white"/>
<path d="M17.3057 35.6356C17.1852 35.6356 17.0697 35.5877 16.9846 35.5026C16.8994 35.4174 16.8516 35.3019 16.8516 35.1815V24.572C16.8516 24.4516 16.8994 24.3361 16.9846 24.2509C17.0697 24.1658 17.1852 24.1179 17.3057 24.1179C17.4261 24.1179 17.5416 24.1658 17.6268 24.2509C17.7119 24.3361 17.7598 24.4516 17.7598 24.572V35.1815C17.7598 35.3019 17.7119 35.4174 17.6268 35.5026C17.5416 35.5877 17.4261 35.6356 17.3057 35.6356Z" fill="white"/>
<path d="M24.3385 14.4693C24.2245 14.4687 24.1148 14.4262 24.0302 14.3498L23.1841 13.5682C23.0934 13.5217 23.0211 13.446 22.9787 13.3533C22.9363 13.2606 22.9263 13.1564 22.9503 13.0574C22.9743 12.9583 23.0309 12.8702 23.111 12.8073C23.1911 12.7443 23.2901 12.7101 23.392 12.7102C23.4762 12.7111 23.5586 12.7342 23.631 12.7771H23.6454C23.683 12.7949 23.7176 12.8182 23.7481 12.8464L24.6492 13.671C24.7174 13.7326 24.7653 13.8135 24.7866 13.9029C24.8079 13.9923 24.8015 14.0861 24.7684 14.1718C24.7352 14.2575 24.6768 14.3312 24.6009 14.383C24.525 14.4348 24.4352 14.4624 24.3433 14.4621L24.3385 14.4693Z" fill="white"/>
<path d="M27.4509 14.5983C27.3359 14.59 27.2282 14.5384 27.1497 14.4539C27.0711 14.3694 27.0274 14.2584 27.0274 14.143C27.0274 14.0277 27.0711 13.9166 27.1497 13.8321C27.2282 13.7476 27.3359 13.696 27.4509 13.6877C27.47 13.6877 27.4987 13.6877 27.5107 13.6351C27.5226 13.5825 27.4796 13.5682 27.4509 13.5682H26.318C26.203 13.5599 26.0953 13.5083 26.0168 13.4238C25.9382 13.3393 25.8945 13.2283 25.8945 13.1129C25.8945 12.9975 25.9382 12.8865 26.0168 12.802C26.0953 12.7175 26.203 12.6659 26.318 12.6576H27.4509C27.7074 12.6576 27.9535 12.7592 28.1354 12.9401C28.3172 13.1211 28.42 13.3666 28.4213 13.6232C28.4225 13.6455 28.4225 13.6678 28.4213 13.6901C28.4089 13.9378 28.3008 14.171 28.1197 14.3404C27.9387 14.5099 27.6989 14.6023 27.4509 14.5983Z" fill="white"/>
<path d="M20.0961 7.9014C19.2881 7.89644 18.5098 7.59633 17.9076 7.05754C17.3054 6.51876 16.9209 5.77846 16.8265 4.97597C16.7638 4.53828 16.7892 4.09248 16.901 3.6647C17.0129 3.23692 17.209 2.83577 17.4778 2.48476C17.7467 2.13376 18.083 1.83996 18.4669 1.62058C18.8508 1.40121 19.2746 1.26068 19.7135 1.20723C20.1524 1.15377 20.5976 1.18848 21.0229 1.3093C21.4483 1.43012 21.8452 1.63463 22.1905 1.91084C22.5357 2.18705 22.8224 2.52941 23.0336 2.91784C23.2449 3.30628 23.3765 3.73297 23.4207 4.17291C23.4761 4.60645 23.4449 5.04668 23.3289 5.46808C23.2129 5.88947 23.0144 6.28366 22.745 6.6278C22.4756 6.97193 22.1405 7.25917 21.7592 7.47287C21.378 7.68657 20.9581 7.82248 20.5239 7.87272C20.3821 7.89187 20.2392 7.90145 20.0961 7.9014ZM20.1487 2.16527C20.0441 2.16379 19.9395 2.16938 19.8356 2.182C19.5202 2.21715 19.2149 2.31478 18.9376 2.46918C18.6603 2.62359 18.4165 2.83168 18.2205 3.08131C18.0245 3.33094 17.8802 3.61712 17.7959 3.92313C17.7117 4.22914 17.6893 4.54886 17.73 4.86364C17.7499 5.19173 17.8367 5.51229 17.9851 5.80561C18.1334 6.09893 18.3402 6.35883 18.5926 6.56934C18.8451 6.77986 19.1379 6.93654 19.4531 7.02977C19.7683 7.12299 20.0992 7.1508 20.4256 7.11148C20.7519 7.07215 21.0668 6.96653 21.3508 6.80109C21.6349 6.63566 21.8821 6.4139 22.0773 6.14944C22.2725 5.88499 22.4116 5.58342 22.486 5.26325C22.5604 4.94308 22.5686 4.61108 22.5101 4.28764C22.4478 3.70354 22.1726 3.16283 21.7371 2.76871C21.3015 2.37459 20.7361 2.15467 20.1487 2.15093V2.16527Z" fill="white"/>
<path d="M14.1926 21.551C14.0879 21.5519 13.9862 21.5167 13.9046 21.4513C13.8229 21.3859 13.7664 21.2944 13.7445 21.1921C13.7225 21.0898 13.7366 20.9831 13.7843 20.8899C13.832 20.7968 13.9103 20.723 14.0061 20.681L16.9316 19.3593C16.9316 18.6232 16.9555 16.6036 16.9555 14.7871V11.2331C16.9527 10.9064 17.0146 10.5823 17.1376 10.2795C17.2607 9.9768 17.4425 9.70142 17.6725 9.46928C18.0984 9.04294 18.6596 8.7784 19.2595 8.72119H19.5391L21.5468 8.74509C21.6618 8.75343 21.7694 8.80502 21.848 8.88949C21.9266 8.97396 21.9702 9.08504 21.9702 9.2004C21.9702 9.31575 21.9266 9.42683 21.848 9.5113C21.7694 9.59577 21.6618 9.64736 21.5468 9.6557H21.248L19.336 9.62941C18.9532 9.66981 18.5953 9.83824 18.3202 10.1074C18.1736 10.2555 18.0579 10.4314 17.9799 10.6246C17.902 10.8179 17.8633 11.0248 17.8661 11.2331V14.7871C17.8661 17.0553 17.8398 19.6318 17.8398 19.6581C17.8409 19.7463 17.8161 19.833 17.7686 19.9073C17.721 19.9816 17.6527 20.0404 17.5721 20.0763L14.3766 21.5104C14.3185 21.536 14.256 21.5498 14.1926 21.551Z" fill="white"/>
<path d="M25.1096 35.9965C24.775 36.0171 24.4425 35.9307 24.1602 35.7498C23.8779 35.569 23.6605 35.3029 23.5394 34.9903L20.4586 28.1117C20.3515 27.9306 20.271 27.735 20.2196 27.5309C20.2094 27.4968 20.2037 27.4614 20.2029 27.4258L19.9328 21.8259L19.8037 21.79L19.7487 21.7685L19.7057 21.7494C19.2277 21.9717 17.851 22.605 16.1852 23.3866L15.351 23.7523C15.2417 23.7954 15.1198 23.7944 15.0112 23.7495C14.9025 23.7046 14.8155 23.6193 14.7684 23.5115C14.7214 23.4038 14.7179 23.282 14.7588 23.1718C14.7997 23.0616 14.8818 22.9715 14.9878 22.9205L15.8099 22.5596C17.8869 21.5845 19.5121 20.8364 19.5121 20.8364C19.5707 20.8099 19.6343 20.7961 19.6986 20.7961C19.7629 20.7961 19.8264 20.8099 19.885 20.8364L20.0905 20.9272L20.4992 21.0467C20.5898 21.0739 20.6697 21.1284 20.7279 21.2029C20.7862 21.2774 20.8198 21.3682 20.8243 21.4626L21.1063 27.3326C21.1341 27.4422 21.1784 27.547 21.2378 27.6433C21.2519 27.6648 21.2647 27.6871 21.276 27.7102L24.3783 34.6103C24.4251 34.7653 24.5257 34.8986 24.6619 34.9862C24.7981 35.0738 24.9611 35.11 25.1216 35.0883C25.327 35.0823 25.5223 34.998 25.6676 34.8527C25.8129 34.7074 25.8971 34.5121 25.9031 34.3068C25.8919 34.1393 25.8446 33.9762 25.7645 33.8287C25.7535 33.8095 25.7439 33.7896 25.7358 33.769L22.8678 27.2274C22.844 27.1723 22.8318 27.1129 22.8319 27.0529C22.8319 27.0338 22.8056 25.2006 22.8056 23.3388C22.8056 23.2184 22.8535 23.1028 22.9386 23.0177C23.0238 22.9325 23.1393 22.8847 23.2597 22.8847C23.3802 22.8847 23.4957 22.9325 23.5808 23.0177C23.666 23.1028 23.7139 23.2184 23.7139 23.3388C23.7139 24.9569 23.733 26.5558 23.7401 26.9502L24.8109 29.4143L26.5485 33.377C26.6912 33.6416 26.7775 33.933 26.8018 34.2327C26.803 34.2494 26.803 34.2661 26.8018 34.2829C26.8043 34.7344 26.6276 35.1685 26.3103 35.4898C25.993 35.8111 25.5612 35.9934 25.1096 35.9965Z" fill="white"/>
<path d="M23.2275 20.9845C23.1069 20.9839 22.9914 20.9355 22.9063 20.85C22.8212 20.7645 22.7734 20.6487 22.7734 20.528V19.3713C22.7734 19.3713 22.7997 16.2236 22.826 14.1633C22.8263 14.104 22.8383 14.0453 22.8613 13.9906C22.8843 13.936 22.9178 13.8863 22.96 13.8446C23.0022 13.8029 23.0522 13.7699 23.1071 13.7475C23.162 13.7251 23.2208 13.7137 23.2801 13.714C23.3398 13.7146 23.3987 13.727 23.4535 13.7504C23.5084 13.7738 23.5581 13.8078 23.5998 13.8504C23.6416 13.893 23.6745 13.9434 23.6967 13.9987C23.719 14.0541 23.7301 14.1133 23.7295 14.1729C23.7032 16.2331 23.6793 19.3736 23.6793 19.3736V20.528C23.6787 20.6481 23.631 20.7631 23.5466 20.8485C23.4621 20.9338 23.3476 20.9827 23.2275 20.9845Z" fill="white"/>
<path d="M23.2822 13.6233C23.1618 13.6233 23.0463 13.5755 22.9611 13.4903C22.876 13.4051 22.8281 13.2896 22.8281 13.1692V13.0664C22.8281 12.946 22.876 12.8305 22.9611 12.7453C23.0463 12.6601 23.1618 12.6123 23.2822 12.6123C23.4027 12.6123 23.5182 12.6601 23.6033 12.7453C23.6885 12.8305 23.7363 12.946 23.7363 13.0664V13.1692C23.7363 13.2896 23.6885 13.4051 23.6033 13.4903C23.5182 13.5755 23.4027 13.6233 23.2822 13.6233Z" fill="white"/>
<path d="M7.91038 27.0434C7.61165 27.0445 7.31632 26.98 7.04519 26.8546C6.81567 26.7495 6.60986 26.5989 6.44019 26.412C6.27053 26.2251 6.14054 26.0057 6.05809 25.7671C5.97444 25.4899 5.88362 25.2222 5.79519 24.9569C5.38649 23.7188 4.99691 22.5501 5.47253 21.6658C5.61408 21.4274 5.80396 21.2214 6.02995 21.0608C6.25593 20.9003 6.51302 20.7889 6.78467 20.7337C7.02332 20.6582 7.27572 20.6367 7.5237 20.6706C7.77167 20.7045 8.00904 20.793 8.2187 20.9296C8.78515 21.3073 9.07673 21.9908 9.22014 22.4856L13.5414 20.5544L13.582 20.5377C13.7317 20.4876 13.8914 20.4754 14.047 20.5021C14.2025 20.5287 14.3491 20.5935 14.4735 20.6906C14.9034 21.0206 15.2234 21.4731 15.3913 21.9884C15.5726 22.417 15.6543 22.8812 15.6303 23.346C15.6287 23.4982 15.5889 23.6475 15.5146 23.7803C15.4403 23.9131 15.3337 24.0251 15.2048 24.106L15.1738 24.1228C15.0829 24.1658 14.6695 24.3474 13.8186 24.7179L13.0394 25.0573C11.6054 25.6882 9.81287 26.4746 8.84968 26.8426C8.55291 26.9709 8.23367 27.0392 7.91038 27.0434ZM7.31048 21.5678C7.21337 21.5691 7.11688 21.5835 7.02367 21.6108C6.87253 21.6349 6.72795 21.6898 6.59886 21.772C6.46977 21.8542 6.35893 21.962 6.2732 22.0888C5.97444 22.6337 6.32817 23.6615 6.66039 24.6701C6.75121 24.9425 6.84203 25.2198 6.92568 25.497C6.9705 25.6147 7.03812 25.7224 7.12466 25.8138C7.21121 25.9053 7.31497 25.9788 7.42998 26.03C7.60132 26.1017 7.78579 26.1366 7.97148 26.1325C8.15716 26.1284 8.33991 26.0853 8.5079 26.0061C9.46392 25.6404 11.2373 24.8589 12.669 24.2327L13.4481 23.9005C14.0528 23.6376 14.5834 23.4057 14.7292 23.3388C14.7292 23.3388 14.7149 23.3388 14.7149 23.3173C14.7353 22.9827 14.6771 22.6479 14.5452 22.3398C14.5378 22.3235 14.5314 22.3067 14.5261 22.2896C14.4164 21.9397 14.2009 21.6324 13.9094 21.41H13.8807L9.08151 23.5444C9.01595 23.5752 8.94398 23.59 8.87158 23.5875C8.79917 23.585 8.7284 23.5653 8.66511 23.53C8.60183 23.4947 8.54784 23.4449 8.50762 23.3847C8.4674 23.3244 8.4421 23.2554 8.43381 23.1835C8.39318 22.8728 8.1948 21.9884 7.71679 21.6801C7.59624 21.6015 7.45428 21.5623 7.31048 21.5678Z" fill="white"/>
<path d="M27.2733 14.5459C27.1569 14.5461 27.0448 14.5016 26.9602 14.4216L25.9827 13.4942L22.0415 9.79921C21.9825 9.7357 21.9073 9.68944 21.824 9.66537H21.5563C21.4412 9.65703 21.3336 9.60544 21.2551 9.52097C21.1765 9.4365 21.1328 9.32542 21.1328 9.21007C21.1328 9.09471 21.1765 8.98363 21.2551 8.89916C21.3336 8.81469 21.4412 8.7631 21.5563 8.75476H21.8646H21.9292C22.2132 8.8014 22.4751 8.93697 22.6772 9.14195L27.5864 13.7691C27.6525 13.8316 27.6982 13.9125 27.7178 14.0014C27.7373 14.0902 27.7297 14.1829 27.696 14.2674C27.6623 14.3518 27.6039 14.4242 27.5286 14.4752C27.4532 14.5261 27.3643 14.5532 27.2733 14.553V14.5459Z" fill="white"/>
<path d="M25.2351 15.3441C25.1271 15.344 25.0227 15.3049 24.9411 15.2341L24.7595 15.0812L24.7356 15.0573L24.7093 15.031L23.182 13.5659C23.1415 13.5445 23.1044 13.5171 23.0721 13.4846L22.9574 13.3842C22.9152 13.342 22.8817 13.2919 22.8588 13.2367C22.836 13.1816 22.8242 13.1225 22.8242 13.0628C22.8242 13.0031 22.836 12.944 22.8588 12.8888C22.8817 12.8336 22.9152 12.7835 22.9574 12.7413C22.9996 12.6991 23.0497 12.6656 23.1049 12.6428C23.16 12.6199 23.2191 12.6082 23.2788 12.6082C23.3385 12.6082 23.3977 12.6199 23.4528 12.6428C23.508 12.6656 23.5581 12.6991 23.6003 12.7413L23.6529 12.7939C23.6877 12.8126 23.7199 12.8359 23.7485 12.8632L25.5315 14.5362C25.6026 14.5965 25.6535 14.6772 25.6772 14.7674C25.7009 14.8577 25.6963 14.953 25.6639 15.0404C25.6315 15.1279 25.573 15.2033 25.4963 15.2563C25.4196 15.3094 25.3284 15.3375 25.2351 15.3369V15.3441Z" fill="white"/>
<path d="M24.3382 14.4693C24.2242 14.4687 24.1145 14.4261 24.0299 14.3498L23.2244 13.6232C23.12 13.6037 23.0256 13.5484 22.9575 13.4668C22.8895 13.3853 22.852 13.2825 22.8516 13.1762V13.0998C22.8518 13.0078 22.8785 12.9179 22.9285 12.8407C22.9785 12.7636 23.0497 12.7025 23.1336 12.6648C23.2154 12.6289 23.3059 12.6179 23.3939 12.6332C23.4819 12.6485 23.5635 12.6894 23.6283 12.7508L23.7311 12.8536L24.6441 13.6901C24.7123 13.7517 24.7602 13.8326 24.7815 13.922C24.8028 14.0114 24.7964 14.1052 24.7633 14.1909C24.7301 14.2766 24.6717 14.3503 24.5958 14.4021C24.5199 14.4539 24.4301 14.4815 24.3382 14.4812V14.4693Z" fill="white"/>
<path d="M24.362 25.1815C24.2947 25.1814 24.2283 25.1663 24.1675 25.1374C24.1068 25.1084 24.0532 25.0663 24.0107 25.0142L21.3816 21.7685C21.3167 21.687 21.2814 21.5859 21.2812 21.4817V14.1681C21.2812 14.0477 21.3291 13.9322 21.4143 13.847C21.4994 13.7618 21.6149 13.714 21.7354 13.714H24.5174C24.5773 13.7139 24.6367 13.7257 24.6921 13.7486C24.7475 13.7716 24.7978 13.8053 24.84 13.8478L25.5857 14.5935C25.641 14.6499 25.681 14.7194 25.702 14.7955C25.7229 14.8716 25.724 14.9518 25.7052 15.0285L24.4696 19.8373L24.4505 19.8923C24.3692 20.1071 24.3193 20.3325 24.3023 20.5615C24.3074 20.6023 24.3206 20.6418 24.3412 20.6775C24.3617 20.7132 24.3891 20.7444 24.4218 20.7694L24.4529 20.7957C24.5415 20.8751 24.6565 20.9186 24.7755 20.9176C24.8875 20.9261 25.0001 20.9139 25.1077 20.8818L25.2726 20.4229L26.5824 16.441C26.6154 16.3376 26.6844 16.2494 26.7768 16.1925C26.8693 16.1355 26.9791 16.1136 27.0863 16.1306C27.1936 16.1477 27.2911 16.2026 27.3614 16.2854C27.4316 16.3682 27.4698 16.4735 27.4691 16.5821V21.4817C27.4697 21.5864 27.4333 21.688 27.3663 21.7685L24.7158 25.0142C24.6726 25.0662 24.6185 25.1081 24.5574 25.137C24.4963 25.1659 24.4296 25.1811 24.362 25.1815ZM22.1919 21.3215L24.3644 24.0056L26.5609 21.3191V19.4262L25.9753 21.1686C25.7363 21.833 25.0886 21.833 24.7803 21.833C24.4494 21.8378 24.1278 21.7233 23.8745 21.5103C23.7267 21.3984 23.6068 21.2539 23.5239 21.0881C23.441 20.9223 23.3974 20.7397 23.3964 20.5543V20.5137C23.42 20.2009 23.4868 19.8928 23.5948 19.5983L24.7588 15.0572L24.3286 14.627H22.1919V21.3215Z" fill="white"/>
<path d="M24.4653 14.6222H21.2482C21.0534 14.6225 20.863 14.5646 20.7012 14.456C20.5394 14.3475 20.4137 14.1931 20.34 14.0128C20.2948 13.9072 20.2736 13.7929 20.2779 13.6782C20.2809 13.4569 20.3583 13.243 20.4978 13.0711C20.51 13.0541 20.5236 13.0381 20.5384 13.0233C20.6304 12.9252 20.7415 12.8469 20.8647 12.7931C20.988 12.7392 21.1209 12.7111 21.2554 12.7102H23.3921C23.512 12.7103 23.627 12.7575 23.7124 12.8417L23.765 12.8942C23.8375 12.9719 23.8804 13.0726 23.8863 13.1787C23.8923 13.2848 23.8608 13.3896 23.7974 13.4749C23.734 13.5602 23.6427 13.6206 23.5394 13.6455C23.4361 13.6704 23.3273 13.6583 23.232 13.6113H21.2482C21.2321 13.6167 21.2174 13.6257 21.2052 13.6375L21.1861 13.671C21.1933 13.6809 21.2026 13.689 21.2134 13.6948C21.2241 13.7006 21.236 13.7039 21.2482 13.7045H24.4653C24.5857 13.7045 24.7012 13.7523 24.7864 13.8375C24.8715 13.9226 24.9194 14.0381 24.9194 14.1586C24.9194 14.279 24.8715 14.3945 24.7864 14.4797C24.7012 14.5648 24.5857 14.6127 24.4653 14.6127V14.6222Z" fill="white"/>
<path d="M24.3799 35.8172C24.2592 35.8165 24.1437 35.7682 24.0586 35.6826C23.9735 35.5971 23.9258 35.4813 23.9258 35.3607V24.7273C23.9258 24.6069 23.9736 24.4914 24.0588 24.4062C24.1439 24.321 24.2595 24.2732 24.3799 24.2732C24.5003 24.2732 24.6158 24.321 24.701 24.4062C24.7862 24.4914 24.834 24.6069 24.834 24.7273V35.3726C24.8309 35.4912 24.7818 35.6039 24.697 35.6869C24.6122 35.7698 24.4985 35.8166 24.3799 35.8172Z" fill="white"/>
<path d="M26.9863 21.1901H25.7004C25.6379 21.1947 25.5751 21.1863 25.5159 21.1654C25.4567 21.1446 25.4025 21.1118 25.3565 21.0691C25.3106 21.0264 25.274 20.9746 25.2489 20.9171C25.2239 20.8596 25.2109 20.7976 25.2109 20.7348C25.2109 20.6721 25.2239 20.61 25.2489 20.5525C25.274 20.495 25.3106 20.4433 25.3565 20.4006C25.4025 20.3578 25.4567 20.325 25.5159 20.3042C25.5751 20.2834 25.6379 20.275 25.7004 20.2795H26.9863C27.0489 20.275 27.1117 20.2834 27.1709 20.3042C27.23 20.325 27.2843 20.3578 27.3302 20.4006C27.3761 20.4433 27.4128 20.495 27.4378 20.5525C27.4629 20.61 27.4758 20.6721 27.4758 20.7348C27.4758 20.7976 27.4629 20.8596 27.4378 20.9171C27.4128 20.9746 27.3761 21.0264 27.3302 21.0691C27.2843 21.1118 27.23 21.1446 27.1709 21.1654C27.1117 21.1863 27.0489 21.1947 26.9863 21.1901Z" fill="white"/>
<path d="M21.8408 21.0085C21.7204 21.0085 21.6049 20.9607 21.5197 20.8755C21.4346 20.7904 21.3867 20.6749 21.3867 20.5544C21.3867 20.434 21.4346 20.3185 21.5197 20.2333C21.6049 20.1482 21.7204 20.1003 21.8408 20.1003L23.8509 20.0764C23.9659 20.0848 24.0736 20.1363 24.1521 20.2208C24.2307 20.3053 24.2744 20.4164 24.2744 20.5317C24.2744 20.6471 24.2307 20.7582 24.1521 20.8426C24.0736 20.9271 23.9659 20.9787 23.8509 20.987H23.2318L21.8504 21.0109L21.8408 21.0085Z" fill="white"/>
<path d="M25.289 15.3178H25.2627C25.2031 15.3178 25.144 15.306 25.0889 15.2832C25.0338 15.2604 24.9838 15.2269 24.9416 15.1848C24.8994 15.1426 24.866 15.0925 24.8432 15.0374C24.8203 14.9823 24.8086 14.9233 24.8086 14.8637C24.8086 14.804 24.8203 14.745 24.8432 14.6899C24.866 14.6348 24.8994 14.5847 24.9416 14.5426C24.9838 14.5004 25.0338 14.4669 25.0889 14.4441C25.144 14.4213 25.2031 14.4095 25.2627 14.4095C25.3854 14.4094 25.5035 14.4565 25.5925 14.541C25.6815 14.6255 25.7346 14.7411 25.7407 14.8637C25.742 14.9234 25.7312 14.9829 25.709 15.0384C25.6868 15.0939 25.6536 15.1444 25.6114 15.1868C25.5693 15.2292 25.519 15.2626 25.4636 15.2851C25.4082 15.3077 25.3488 15.3187 25.289 15.3178Z" fill="white"/>
<path d="M27.0054 16.9933C26.9574 16.9933 26.9097 16.9852 26.8644 16.9694C26.7499 16.9316 26.655 16.8501 26.6003 16.7427C26.5457 16.6352 26.5358 16.5105 26.5728 16.3957L26.9409 15.2963C27.1631 14.6845 27.1129 14.5793 27.0126 14.4574C26.9308 14.3687 26.8876 14.2511 26.8926 14.1305C26.8975 14.0099 26.9501 13.8963 27.0389 13.8145C27.1276 13.7327 27.2452 13.6895 27.3658 13.6945C27.4863 13.6994 27.6 13.752 27.6818 13.8408C28.2243 14.4287 27.9686 15.129 27.8013 15.5927L27.4452 16.6849C27.4142 16.7764 27.3548 16.8556 27.2757 16.9111C27.1967 16.9665 27.102 16.9953 27.0054 16.9933Z" fill="white"/>
<path d="M13.028 25.0262C12.9209 25.0273 12.8172 24.989 12.7364 24.9187C12.6905 24.8804 12.6525 24.8335 12.6248 24.7805C12.5971 24.7275 12.5802 24.6695 12.5751 24.6099C12.57 24.5503 12.5768 24.4903 12.595 24.4333C12.6133 24.3764 12.6427 24.3236 12.6815 24.2781C13.095 23.8001 13.028 23.1022 12.9802 22.8298C12.9462 22.4928 12.8026 22.1763 12.5715 21.9287C12.475 21.8647 12.4064 21.7664 12.3796 21.6538C12.3528 21.5411 12.3698 21.4224 12.4273 21.3218C12.4847 21.2212 12.5782 21.1462 12.6889 21.112C12.7995 21.0778 12.9191 21.087 13.0233 21.1376C13.4176 21.3766 13.7403 21.9646 13.8765 22.672C13.9577 23.0502 13.9555 23.4416 13.87 23.8188C13.7846 24.1961 13.618 24.5502 13.3818 24.8565C13.3389 24.9091 13.285 24.9515 13.2238 24.9809C13.1627 25.0102 13.0958 25.0257 13.028 25.0262Z" fill="white"/>
<path d="M11.2842 25.7216C11.1767 25.7211 11.0727 25.6831 10.9902 25.6141C10.9447 25.5755 10.9072 25.5283 10.8799 25.4752C10.8526 25.4222 10.836 25.3642 10.8311 25.3047C10.8262 25.2452 10.8331 25.1854 10.8514 25.1285C10.8697 25.0717 10.899 25.019 10.9376 24.9736C11.3535 24.4812 11.2842 23.7785 11.234 23.5061C11.2003 23.1801 11.0629 22.8735 10.842 22.6313C10.7371 22.5727 10.6591 22.4755 10.6247 22.3604C10.5904 22.2452 10.6023 22.1212 10.658 22.0147C10.7134 21.9097 10.8081 21.8309 10.9214 21.7956C11.0347 21.7602 11.1574 21.7711 11.2627 21.8258C11.7407 22.0649 12.0108 22.7436 12.1183 23.2933C12.2134 23.6831 12.2198 24.0892 12.1371 24.4817C12.0543 24.8743 11.8846 25.2433 11.6403 25.5615C11.5967 25.6131 11.5421 25.6543 11.4805 25.682C11.4188 25.7098 11.3518 25.7233 11.2842 25.7216Z" fill="white"/>
<path d="M9.45607 26.5295C9.34854 26.529 9.24456 26.491 9.1621 26.422C9.11655 26.3834 9.07905 26.3362 9.05175 26.2831C9.02445 26.23 9.00789 26.1721 9.00301 26.1126C8.99812 26.0531 9.00502 25.9932 9.02329 25.9364C9.04157 25.8796 9.07087 25.8269 9.10951 25.7814C9.52538 25.2891 9.45607 24.5864 9.40588 24.3139C9.37448 23.9823 9.23703 23.6697 9.01391 23.4224C8.90895 23.3639 8.83098 23.2667 8.79661 23.1515C8.76224 23.0363 8.77417 22.9123 8.82988 22.8058C8.8853 22.7008 8.97999 22.6221 9.09329 22.5867C9.20658 22.5513 9.32927 22.5622 9.43456 22.617C9.91257 22.856 10.1826 23.5348 10.2902 24.0845C10.3853 24.4742 10.3917 24.8803 10.3089 25.2729C10.2262 25.6654 10.0565 26.0344 9.81219 26.3526C9.77026 26.4073 9.71636 26.4517 9.65464 26.4824C9.59291 26.513 9.52499 26.5291 9.45607 26.5295Z" fill="white"/>
<path d="M7.18766 26.8546C7.08413 26.8553 6.98347 26.8206 6.90236 26.7563C6.82125 26.692 6.76456 26.6018 6.74169 26.5009C6.71882 26.3999 6.73113 26.2941 6.7766 26.2011C6.82206 26.1081 6.89795 26.0334 6.99167 25.9894C8.10305 25.4565 8.53804 23.6926 8.42571 23.1214C8.40291 23.0598 8.39373 22.9941 8.39877 22.9287C8.40382 22.8633 8.42299 22.7997 8.45495 22.7424C8.48691 22.6851 8.53091 22.6354 8.58392 22.5968C8.63693 22.5581 8.69769 22.5314 8.76201 22.5184C8.82634 22.5055 8.8927 22.5067 8.95654 22.5218C9.02038 22.537 9.08016 22.5658 9.13179 22.6063C9.18342 22.6468 9.22566 22.698 9.2556 22.7564C9.28555 22.8148 9.30248 22.879 9.30525 22.9445C9.50362 23.8647 8.9085 26.0898 7.3932 26.8212C7.32838 26.8487 7.25787 26.8602 7.18766 26.8546Z" fill="white"/>
<path d="M6.30643 25.0955C6.17418 25.103 6.04316 25.0668 5.93348 24.9925C5.82381 24.9182 5.74155 24.81 5.69935 24.6845C5.66873 24.5931 5.66792 24.4945 5.69706 24.4027C5.7262 24.3109 5.78377 24.2307 5.86146 24.1738C5.93914 24.1168 6.03291 24.0861 6.12922 24.0859C6.22554 24.0858 6.3194 24.1163 6.39725 24.173C6.92784 24.0391 8.28539 22.978 8.28778 22.5788C8.27321 22.5212 8.27028 22.4613 8.27916 22.4025C8.28803 22.3437 8.30853 22.2873 8.33947 22.2366C8.3704 22.1858 8.41115 22.1418 8.45932 22.107C8.50749 22.0722 8.56211 22.0473 8.62 22.0339C8.67838 22.0196 8.73901 22.0171 8.79839 22.0263C8.85777 22.0355 8.91474 22.0564 8.96604 22.0877C9.01733 22.119 9.06194 22.1602 9.0973 22.2088C9.13266 22.2573 9.15808 22.3124 9.1721 22.3709C9.44218 23.4464 7.38434 24.8279 6.63865 25.043C6.5311 25.0767 6.41915 25.0945 6.30643 25.0955Z" fill="white"/>
<path d="M5.95039 23.757H5.87869C5.74104 23.7481 5.61006 23.6945 5.50567 23.6043C5.40127 23.5142 5.32916 23.3924 5.3003 23.2575C5.27857 23.1617 5.28852 23.0614 5.32865 22.9717C5.36878 22.882 5.43692 22.8077 5.52285 22.76C5.60878 22.7124 5.70785 22.6938 5.80519 22.7073C5.90254 22.7207 5.99291 22.7653 6.06273 22.8345C6.50489 22.7102 7.44179 21.9478 7.56607 21.5988C7.49923 21.5085 7.46824 21.3967 7.47906 21.2849C7.48989 21.173 7.54178 21.0692 7.6247 20.9934C7.70761 20.9176 7.81568 20.8753 7.92801 20.8745C8.04034 20.8738 8.14897 20.9147 8.2329 20.9893C8.36048 21.1092 8.44541 21.2675 8.47475 21.4401C8.50409 21.6126 8.47623 21.7901 8.39542 21.9454C8.07993 22.6863 6.72477 23.757 5.95039 23.757Z" fill="white"/>
<path d="M21.5536 20.0572H17.3805C17.2655 20.0489 17.1578 19.9973 17.0793 19.9128C17.0007 19.8283 16.957 19.7173 16.957 19.6019C16.957 19.4866 17.0007 19.3755 17.0793 19.291C17.1578 19.2065 17.2655 19.1549 17.3805 19.1466H21.5536C21.6686 19.1549 21.7762 19.2065 21.8548 19.291C21.9334 19.3755 21.977 19.4866 21.977 19.6019C21.977 19.7173 21.9334 19.8283 21.8548 19.9128C21.7762 19.9973 21.6686 20.0489 21.5536 20.0572Z" fill="white"/>
</svg>
