<svg width="14" height="14" viewBox="0 0 14 14" fill="none" xmlns="http://www.w3.org/2000/svg">
<path fill-rule="evenodd" clip-rule="evenodd" d="M4.99861 11.3523C4.77867 11.4703 4.51072 11.4526 4.30818 11.3068C4.10563 11.161 4.00389 10.9125 4.04601 10.6665L4.5185 7.93221L2.51749 5.99488C2.34064 5.82097 2.27755 5.56189 2.35463 5.32614C2.43171 5.09038 2.63567 4.91863 2.88111 4.88278L5.64747 4.48378L6.88313 1.99394C6.99476 1.77096 7.22275 1.63013 7.47212 1.63013C7.72148 1.63013 7.94947 1.77096 8.0611 1.99394L9.29676 4.48378L12.0631 4.88278C12.3086 4.91863 12.5125 5.09038 12.5896 5.32614C12.6667 5.56189 12.6036 5.82097 12.4267 5.99488L10.4246 7.93112L10.8971 10.6654C10.9398 10.9115 10.8382 11.1605 10.6356 11.3066C10.4329 11.4528 10.1647 11.4705 9.94453 11.3523L7.47103 10.0628L4.99861 11.3523Z" stroke="#F2C94C" stroke-width="1.5" stroke-linecap="round" stroke-linejoin="round"/>
</svg>
