<svg width="14" height="14" viewBox="0 0 14 14" fill="none" xmlns="http://www.w3.org/2000/svg">
<path fill-rule="evenodd" clip-rule="evenodd" d="M4.76228 11.3523C4.54234 11.4703 4.27439 11.4526 4.07185 11.3068C3.8693 11.161 3.76756 10.9125 3.80968 10.6665L4.28217 7.93221L2.28116 5.99488C2.10431 5.82097 2.04122 5.56189 2.1183 5.32614C2.19539 5.09038 2.39935 4.91863 2.64478 4.88278L5.41114 4.48378L6.64681 1.99394C6.75843 1.77096 6.98642 1.63013 7.23579 1.63013C7.48516 1.63013 7.71314 1.77096 7.82477 1.99394L9.06043 4.48378L11.8268 4.88278C12.0722 4.91863 12.2762 5.09038 12.3533 5.32614C12.4304 5.56189 12.3673 5.82097 12.1904 5.99488L10.1883 7.93112L10.6608 10.6654C10.7034 10.9115 10.6019 11.1605 10.3992 11.3066C10.1966 11.4528 9.92834 11.4705 9.7082 11.3523L7.2347 10.0628L4.76228 11.3523Z" fill="#F2C94C" stroke="#F2C94C" stroke-width="1.5" stroke-linecap="round" stroke-linejoin="round"/>
</svg>
