<svg width="20" height="20" viewBox="0 0 20 20" fill="none" xmlns="http://www.w3.org/2000/svg">
<path fill-rule="evenodd" clip-rule="evenodd" d="M8.44211 11.5575C7.46711 10.5825 6.73211 9.49083 6.24378 8.38333C6.14128 8.14916 6.20128 7.87499 6.38211 7.69416L7.06461 7.01166C7.62378 6.45249 7.62378 5.66166 7.13545 5.17333L6.15795 4.19583C5.50711 3.54499 4.45211 3.54499 3.80128 4.19583L3.25795 4.73833C2.64045 5.35583 2.38295 6.24666 2.54961 7.12999C2.96128 9.30749 4.22628 11.6917 6.26711 13.7325C8.30795 15.7733 10.6921 17.0383 12.8696 17.45C13.7529 17.6167 14.6438 17.3592 15.2613 16.7417L15.8038 16.1992C16.4546 15.5483 16.4546 14.4933 15.8038 13.8425L14.8263 12.865C14.3379 12.3767 13.5463 12.3767 13.0588 12.865L12.3063 13.6183C12.1254 13.7992 11.8513 13.86 11.6171 13.7567C10.5096 13.2675 9.41711 12.5317 8.44211 11.5575Z" stroke="#461BFF" stroke-width="1.5" stroke-linecap="round" stroke-linejoin="round"/>
<path d="M12.5 2.5V7.5H17.5" stroke="#461BFF" stroke-width="1.5" stroke-linecap="round" stroke-linejoin="round"/>
<path d="M17.5 2.5L12.5 7.5" stroke="#461BFF" stroke-width="1.5" stroke-linecap="round" stroke-linejoin="round"/>
</svg>
