<svg width="120" height="120" viewBox="0 0 120 120" fill="none" xmlns="http://www.w3.org/2000/svg">
<path d="M51.3552 83.7331L49.4424 80.42L45.4746 82.7108L47.3874 86.0239C49.189 89.1486 51.9871 91.5783 55.3337 92.9237C58.6802 94.2692 62.3814 94.4527 65.8446 93.4447L63.4461 89.2904C61.1052 89.7242 58.6874 89.4215 56.5257 88.4242C54.3639 87.4269 52.5644 85.784 51.375 83.7216L51.3552 83.7331Z" fill="#00F19A"/>
<path d="M79.9977 54.1581L83.3108 52.2453L85.6016 56.213L82.2885 58.1258C79.1659 59.9311 75.5278 60.6362 71.9569 60.1281C68.386 59.6201 65.0889 57.9283 62.5937 55.3238L66.7479 52.9254C68.5584 54.4714 70.8036 55.4182 73.1744 55.6355C75.5452 55.8527 77.925 55.3296 79.9863 54.1382L79.9977 54.1581Z" fill="white"/>
<path d="M49.3664 35.7487L52.6795 33.8359L50.3887 29.8682L47.0756 31.781C43.9509 33.5826 41.5212 36.3807 40.1757 39.7272C38.8303 43.0737 38.6468 46.775 39.6548 50.2381L43.809 47.8397C43.3753 45.4988 43.678 43.081 44.6753 40.9192C45.6726 38.7574 47.3155 36.9579 49.3778 35.7685L49.3664 35.7487Z" fill="white"/>
<path d="M32.9514 72.7544L44.9102 65.85L42.6079 61.8624L30.6491 68.7668L32.9514 72.7544Z" fill="#00F19A"/>
<path d="M62.1048 20.7311L71.8691 30.4954L75.125 27.2395L65.3607 17.4752L62.1048 20.7311Z" fill="white"/>
<circle cx="85.2455" cy="77.2499" r="6.4957" transform="rotate(60 85.2455 77.2499)" fill="white"/>
</svg>
