<?xml version="1.0" encoding="utf-8"?>
<!-- Generator: Adobe Illustrator 26.0.0, SVG Export Plug-In . SVG Version: 6.00 Build 0)  -->
<svg version="1.1" id="Layer_1" xmlns="http://www.w3.org/2000/svg" xmlns:xlink="http://www.w3.org/1999/xlink" x="0px" y="0px"
	 viewBox="0 0 520.88 301.14" style="enable-background:new 0 0 520.88 301.14;" xml:space="preserve">
<style type="text/css">
	.st0{fill:none;}
	.st1{fill:#fff;}
</style>
<g>
	<path class="st0" d="M292.98,211.06c0.22,1.38,0.43,2.77,0.43,4.21C293.41,213.82,293.23,212.43,292.98,211.06z"/>
	<path class="st0" d="M293.41,215.27c0,1.44-0.21,2.83-0.43,4.21C293.23,218.1,293.41,216.71,293.41,215.27z"/>
	<path class="st0" d="M139.35,257.89c-7.65,0-13.87,6.22-13.87,13.87c0,7.65,6.22,13.87,13.87,13.87c7.65,0,13.87-6.22,13.87-13.87
		C153.22,264.11,147,257.89,139.35,257.89z"/>
	<path class="st0" d="M165.94,267.57c0.22,1.37,0.42,2.75,0.42,4.18C166.36,270.32,166.18,268.93,165.94,267.57z"/>
	<path class="st0" d="M166.36,271.75c0,1.52-0.21,2.99-0.45,4.44C166.17,274.75,166.36,273.28,166.36,271.75z"/>
	<path class="st0" d="M266.4,201.4c-7.65,0-13.87,6.22-13.87,13.87s6.22,13.87,13.87,13.87c7.65,0,13.87-6.22,13.87-13.87
		S274.05,201.4,266.4,201.4z"/>
	<path class="st0" d="M213.98,105.56c0.22,1.38,0.43,2.77,0.43,4.21C214.4,108.32,214.22,106.93,213.98,105.56z"/>
	<path class="st0" d="M214.4,109.77c0,1.44-0.21,2.83-0.43,4.21C214.22,112.61,214.4,111.21,214.4,109.77z"/>
	<path class="st0" d="M187.4,95.9c-7.65,0-13.87,6.22-13.87,13.87c0,7.65,6.22,13.87,13.87,13.87c7.65,0,13.87-6.22,13.87-13.87
		C201.27,102.12,195.05,95.9,187.4,95.9z"/>
	<path class="st0" d="M446.13,25.44c0.22,1.38,0.43,2.77,0.43,4.21C446.56,28.21,446.38,26.81,446.13,25.44z"/>
	<path class="st0" d="M41.68,216.39c0.83,0.4,1.63,0.83,2.41,1.31C43.31,217.22,42.51,216.79,41.68,216.39z"/>
	<path class="st0" d="M446.56,29.65c0,1.44-0.21,2.83-0.43,4.21C446.38,32.49,446.56,31.1,446.56,29.65z"/>
	<path class="st0" d="M30.14,226.84c-7.65,0-13.87,6.22-13.87,13.87c0,7.65,6.22,13.87,13.87,13.87c7.65,0,13.87-6.22,13.87-13.87
		C44.01,233.06,37.79,226.84,30.14,226.84z"/>
	<path class="st0" d="M419.55,15.78c-7.65,0-13.87,6.22-13.87,13.87c0,7.65,6.22,13.87,13.87,13.87c7.65,0,13.87-6.22,13.87-13.87
		C433.42,22,427.2,15.78,419.55,15.78z"/>
	<path class="st1" d="M166.36,271.75c0-1.43-0.21-2.81-0.42-4.18c-0.18-0.98-0.38-1.95-0.64-2.91
		c-3.14-11.44-13.52-19.91-25.94-19.91c-14.89,0-27.01,12.11-27.01,27c0,14.89,12.11,27.01,27.01,27.01
		c12.8,0,23.5-8.98,26.26-20.96c0.12-0.53,0.19-1.07,0.29-1.6C166.15,274.74,166.36,273.27,166.36,271.75z M139.35,285.62
		c-7.65,0-13.87-6.22-13.87-13.87c0-7.65,6.22-13.87,13.87-13.87c7.65,0,13.87,6.22,13.87,13.87
		C153.22,279.4,147,285.62,139.35,285.62z"/>
	<path class="st1" d="M485.16,219.3h-46.83l-4.34,1.64l-49.66,43.72H165.29c0.26,0.95,0.46,1.93,0.64,2.91
		c0.25,1.36,0.42,2.75,0.42,4.18c0,1.52-0.19,2.99-0.45,4.44c-0.1,0.54-0.17,1.08-0.29,1.6h221.19l4.34-1.64l49.65-43.72h42.19
		l32.68,24.16l3.9,1.29h1.03v-13.98l-31.55-23.32L485.16,219.3z"/>
	<path class="st1" d="M293.41,215.27c0-1.44-0.21-2.83-0.43-4.21c-0.14-0.79-0.28-1.58-0.48-2.36
		c-2.95-11.71-13.49-20.44-26.1-20.44c-14.89,0-27,12.11-27,27.01c0,14.89,12.11,27.01,27,27.01c12.61,0,23.15-8.73,26.1-20.44
		c0.2-0.77,0.34-1.57,0.48-2.36C293.2,218.1,293.41,216.71,293.41,215.27z M266.4,229.14c-7.65,0-13.87-6.22-13.87-13.87
		s6.22-13.87,13.87-13.87c7.65,0,13.87,6.22,13.87,13.87S274.05,229.14,266.4,229.14z"/>
	<path class="st1" d="M416.19,168.81l-47.79,39.88h-75.9v0c0.2,0.77,0.34,1.57,0.48,2.36c0.24,1.37,0.43,2.77,0.43,4.21
		c0,1.44-0.18,2.84-0.43,4.21c-0.14,0.79-0.28,1.58-0.48,2.36v0h78.28l4.21-1.53l47.79-39.88h97.82v-13.14H420.4L416.19,168.81z"/>
	<path class="st1" d="M46.42,219.31c-0.14-0.1-0.26-0.23-0.39-0.33c-0.62-0.46-1.28-0.87-1.93-1.28c-0.78-0.47-1.58-0.91-2.41-1.31
		c-0.46-0.22-0.89-0.47-1.36-0.67c-3.15-1.29-6.58-2.03-10.18-2.03c-14.89,0-27,12.11-27,27.01c0,14.89,12.11,27,27,27
		c14.89,0,27.01-12.11,27.01-27c0-6.53-2.42-12.45-6.3-17.13C49.53,222,48.04,220.57,46.42,219.31z M30.14,254.58
		c-7.65,0-13.87-6.22-13.87-13.87c0-7.65,6.22-13.87,13.87-13.87c7.65,0,13.87,6.22,13.87,13.87
		C44.01,248.36,37.79,254.58,30.14,254.58z"/>
	<path class="st1" d="M366.54,130.16l-30.7,26.05H87.31l-5.3,2.68l-41.69,56.84c0.47,0.19,0.91,0.45,1.36,0.67
		c0.83,0.4,1.63,0.83,2.41,1.31c0.66,0.41,1.32,0.81,1.93,1.28c0.14,0.1,0.26,0.22,0.39,0.33c1.62,1.26,3.11,2.69,4.43,4.28
		l39.79-54.24h247.62l4.25-1.56l30.7-26.05h147.41V128.6H370.79L366.54,130.16z"/>
	<path class="st1" d="M214.4,109.77c0-1.44-0.21-2.83-0.43-4.21c-0.14-0.79-0.28-1.58-0.48-2.36c-2.95-11.71-13.49-20.44-26.1-20.44
		c-14.89,0-27,12.11-27,27.01c0,14.89,12.11,27,27,27c12.61,0,23.15-8.73,26.1-20.44c0.2-0.77,0.34-1.57,0.48-2.36
		C214.2,112.6,214.4,111.21,214.4,109.77z M187.4,123.63c-7.65,0-13.87-6.22-13.87-13.87c0-7.65,6.22-13.87,13.87-13.87
		c7.65,0,13.87,6.22,13.87,13.87C201.27,117.42,195.05,123.63,187.4,123.63z"/>
	<path class="st1" d="M318.7,75.33l-30.66,27.87H213.5v0c0.2,0.77,0.34,1.57,0.48,2.36c0.24,1.37,0.43,2.77,0.43,4.21
		s-0.18,2.84-0.43,4.21c-0.14,0.79-0.28,1.58-0.48,2.36v0h77.09l4.42-1.71l30.66-27.87h194.95V73.62H323.12L318.7,75.33z"/>
	<path class="st1" d="M446.56,29.65c0-1.44-0.21-2.83-0.43-4.21c-0.14-0.79-0.28-1.58-0.48-2.36c-2.95-11.71-13.49-20.44-26.1-20.44
		c-14.89,0-27,12.11-27,27.01c0,14.89,12.11,27,27,27c12.61,0,23.15-8.73,26.1-20.44c0.2-0.77,0.34-1.57,0.48-2.36
		C446.35,32.48,446.56,31.09,446.56,29.65z M419.55,43.52c-7.65,0-13.87-6.22-13.87-13.87c0-7.65,6.22-13.87,13.87-13.87
		c7.65,0,13.87,6.22,13.87,13.87C433.42,37.3,427.2,43.52,419.55,43.52z"/>
	<path class="st1" d="M445.66,23.08c0.2,0.77,0.34,1.57,0.48,2.36c0.24,1.37,0.43,2.77,0.43,4.21c0,1.44-0.18,2.84-0.43,4.21
		c-0.14,0.79-0.28,1.58-0.48,2.36v0h74.95V23.08L445.66,23.08L445.66,23.08z"/>
</g>
</svg>
