<?xml version="1.0" encoding="utf-8"?>
<!-- Generator: Adobe Illustrator 26.0.0, SVG Export Plug-In . SVG Version: 6.00 Build 0)  -->
<svg version="1.1" id="Layer_1" xmlns="http://www.w3.org/2000/svg" xmlns:xlink="http://www.w3.org/1999/xlink" x="0px" y="0px"
	 viewBox="0 0 301.57 629.43" style="enable-background:new 0 0 301.57 629.43;" xml:space="preserve">
<style type="text/css">
	.st0{fill:none;}
	.st1{fill:#FFFFFF;}
	.st2{fill:#C1272D;}
</style>
<g>
	<g>
		<path class="st0" d="M44.4,138.03c0-7.65-6.22-13.87-13.87-13.87c-7.65,0-13.87,6.22-13.87,13.87c0,7.65,6.22,13.87,13.87,13.87
			C38.18,151.9,44.4,145.68,44.4,138.03z"/>
		<path class="st0" d="M87.02,292.09c-1.44,0-2.83-0.21-4.21-0.43C84.18,291.91,85.57,292.09,87.02,292.09z"/>
		<path class="st0" d="M91.23,291.66c-1.38,0.22-2.77,0.43-4.21,0.43C88.46,292.09,89.86,291.91,91.23,291.66z"/>
		<path class="st0" d="M30.53,165.04c-1.52,0-2.99-0.21-4.44-0.45C27.54,164.85,29.01,165.04,30.53,165.04z"/>
		<path class="st0" d="M34.72,164.62c-1.37,0.22-2.75,0.42-4.18,0.42C31.97,165.04,33.36,164.86,34.72,164.62z"/>
		<path class="st0" d="M87.02,278.95c7.65,0,13.87-6.22,13.87-13.87c0-7.65-6.22-13.87-13.87-13.87s-13.87,6.22-13.87,13.87
			C73.15,272.73,79.37,278.95,87.02,278.95z"/>
		<path class="st1" d="M26.09,164.59c1.45,0.24,2.92,0.45,4.44,0.45c1.43,0,2.81-0.21,4.18-0.42c0.98-0.18,1.95-0.38,2.91-0.64l0,0
			c11.44-3.14,19.91-13.52,19.91-25.94c0-14.89-12.11-27.01-27-27.01c-14.89,0-27.01,12.11-27.01,27.01
			c0,12.8,8.98,23.5,20.96,26.26l0,0C25.01,164.42,25.56,164.49,26.09,164.59z M16.67,138.03c0-7.65,6.22-13.87,13.87-13.87
			c7.65,0,13.87,6.22,13.87,13.87c0,7.65-6.22,13.87-13.87,13.87C22.88,151.9,16.67,145.68,16.67,138.03z"/>
		<path class="st1" d="M81.69,487.74l1.29-3.9V437l-1.64-4.34l-43.72-49.65V163.97l0,0c-0.95,0.26-1.93,0.46-2.91,0.64
			c-1.36,0.25-2.75,0.42-4.18,0.42c-1.52,0-2.99-0.19-4.44-0.45c-0.53-0.1-1.08-0.17-1.6-0.29l0,0v221.19l1.64,4.34l43.72,49.65
			v42.19l-24.16,32.68l-1.29,3.9v98.53c4.42,2.07,8.81,4.22,13.14,6.5V520.42L81.69,487.74z"/>
		<path class="st1" d="M87.02,292.09c1.44,0,2.83-0.21,4.21-0.43c0.79-0.14,1.58-0.28,2.36-0.48c11.71-2.95,20.44-13.49,20.44-26.1
			c0-14.89-12.11-27-27.01-27s-27.01,12.11-27.01,27c0,12.61,8.73,23.15,20.44,26.1c0.77,0.2,1.57,0.34,2.36,0.48
			C84.19,291.88,85.58,292.09,87.02,292.09z M87.02,251.22c7.65,0,13.87,6.22,13.87,13.87c0,7.65-6.22,13.87-13.87,13.87
			s-13.87-6.22-13.87-13.87C73.15,257.44,79.37,251.22,87.02,251.22z"/>
		<path class="st1" d="M133.47,414.87l-39.88-47.79v-75.9h0c-0.77,0.2-1.57,0.34-2.36,0.48c-1.37,0.24-2.77,0.43-4.21,0.43
			s-2.84-0.18-4.21-0.43c-0.79-0.14-1.58-0.28-2.36-0.48h0v78.28l1.53,4.21l39.88,47.79v203.7c4.35-1.46,8.73-2.82,13.14-4.09
			V419.08L133.47,414.87z"/>
	</g>
	<g>
		<path class="st0" d="M83.31,44.7c-0.1,0.14-0.22,0.26-0.33,0.39C83.08,44.96,83.2,44.84,83.31,44.7z"/>
		<path class="st0" d="M61.58,14.95c-7.65,0-13.87,6.22-13.87,13.87c0,7.65,6.22,13.87,13.87,13.87c7.65,0,13.87-6.22,13.87-13.87
			C75.44,21.17,69.22,14.95,61.58,14.95z"/>
		<path class="st0" d="M85.89,40.36c-0.4,0.83-0.83,1.63-1.31,2.41C85.06,41.99,85.49,41.19,85.89,40.36z"/>
		<path class="st1" d="M82.98,45.1c0.1-0.14,0.23-0.26,0.33-0.39c0.46-0.62,0.87-1.28,1.28-1.93c0.47-0.78,0.91-1.58,1.31-2.41
			c0.22-0.46,0.47-0.89,0.67-1.36l0,0c1.29-3.15,2.03-6.58,2.03-10.18c0-14.89-12.11-27-27.01-27c-14.89,0-27,12.11-27,27
			c0,14.89,12.11,27.01,27,27.01c6.53,0,12.45-2.42,17.13-6.3C80.29,48.21,81.72,46.72,82.98,45.1z M61.58,42.68
			c-7.65,0-13.87-6.22-13.87-13.87c0-7.65,6.22-13.87,13.87-13.87c7.65,0,13.87,6.22,13.87,13.87
			C75.44,36.46,69.22,42.68,61.58,42.68z"/>
		<path class="st1" d="M172.13,365.22l-26.05-30.7V85.99l-2.68-5.3L86.56,39l0,0c-0.19,0.47-0.45,0.91-0.67,1.36
			c-0.4,0.83-0.83,1.63-1.31,2.41c-0.41,0.66-0.81,1.32-1.28,1.93c-0.1,0.14-0.22,0.26-0.33,0.39c-1.26,1.62-2.69,3.11-4.28,4.43
			l0,0l54.24,39.79v247.62l1.56,4.25l26.05,30.7v253.92c4.36-0.88,8.74-1.7,13.14-2.41V369.47L172.13,365.22z"/>
	</g>
	<g>
		<path class="st0" d="M192.52,213.08c-1.44,0-2.83-0.21-4.21-0.43C189.68,212.9,191.07,213.08,192.52,213.08z"/>
		<path class="st0" d="M192.52,199.95c7.65,0,13.87-6.22,13.87-13.87c0-7.65-6.22-13.87-13.87-13.87c-7.65,0-13.87,6.22-13.87,13.87
			C178.65,193.73,184.87,199.95,192.52,199.95z"/>
		<path class="st0" d="M196.73,212.66c-1.38,0.22-2.77,0.43-4.21,0.43C193.96,213.08,195.35,212.9,196.73,212.66z"/>
		<path class="st1" d="M192.52,213.08c1.44,0,2.83-0.21,4.21-0.43c0.79-0.14,1.58-0.28,2.36-0.48c11.71-2.95,20.44-13.49,20.44-26.1
			c0-14.89-12.11-27-27.01-27c-14.89,0-27,12.11-27,27c0,12.61,8.73,23.15,20.44,26.1c0.77,0.2,1.57,0.34,2.36,0.48
			C189.69,212.88,191.07,213.08,192.52,213.08z M192.52,172.21c7.65,0,13.87,6.22,13.87,13.87c0,7.65-6.22,13.87-13.87,13.87
			c-7.65,0-13.87-6.22-13.87-13.87C178.65,178.43,184.87,172.21,192.52,172.21z"/>
		<path class="st1" d="M226.95,317.38l-27.87-30.66v-74.55h0c-0.77,0.2-1.57,0.34-2.36,0.48c-1.37,0.24-2.77,0.43-4.21,0.43
			s-2.84-0.18-4.21-0.43c-0.79-0.14-1.58-0.28-2.36-0.48h0v77.09l1.71,4.42l27.87,30.66v295.1c3.21-0.09,6.41-0.15,9.63-0.15
			c1.17,0,2.34,0.06,3.51,0.07V321.8L226.95,317.38z"/>
	</g>
	<g>
		<path class="st0" d="M272.64,432.1c7.65,0,13.87-6.22,13.87-13.87c0-7.65-6.22-13.87-13.87-13.87c-7.65,0-13.87,6.22-13.87,13.87
			C258.77,425.88,264.99,432.1,272.64,432.1z"/>
		<path class="st0" d="M272.64,445.24c-1.44,0-2.83-0.21-4.21-0.43C269.8,445.06,271.19,445.24,272.64,445.24z"/>
		<path class="st0" d="M276.85,444.81c-1.38,0.22-2.77,0.43-4.21,0.43C274.08,445.24,275.47,445.06,276.85,444.81z"/>
		<path class="st1" d="M272.64,445.24c1.44,0,2.83-0.21,4.21-0.43c0.79-0.14,1.58-0.28,2.36-0.48c11.71-2.95,20.44-13.49,20.44-26.1
			c0-14.89-12.11-27-27.01-27c-14.89,0-27,12.11-27,27c0,12.61,8.73,23.15,20.44,26.1c0.77,0.2,1.57,0.34,2.36,0.48
			C269.81,445.03,271.19,445.24,272.64,445.24z M272.64,404.37c7.65,0,13.87,6.22,13.87,13.87c0,7.65-6.22,13.87-13.87,13.87
			c-7.65,0-13.87-6.22-13.87-13.87C258.77,410.59,264.99,404.37,272.64,404.37z"/>
		<path class="st1" d="M279.2,444.34c-0.77,0.2-1.57,0.34-2.36,0.48c-1.37,0.24-2.77,0.43-4.21,0.43c-1.44,0-2.84-0.18-4.21-0.43
			c-0.79-0.14-1.58-0.28-2.36-0.48h0v177.51c4.4,0.56,8.78,1.2,13.14,1.93L279.2,444.34L279.2,444.34z"/>
		<path class="st2" d="M272.64,636.16c0.06,0,0.1-0.03,0.16-0.03c-0.51-0.08-1.03-0.17-1.54-0.25
			C271.71,635.99,272.15,636.16,272.64,636.16z"/>
	</g>
</g>
</svg>
