<?xml version="1.0" encoding="utf-8"?>
<!-- Generator: Adobe Illustrator 26.0.0, SVG Export Plug-In . SVG Version: 6.00 Build 0)  -->
<svg version="1.1" id="Layer_1" xmlns="http://www.w3.org/2000/svg" xmlns:xlink="http://www.w3.org/1999/xlink" x="0px" y="0px"
	 viewBox="0 0 784.3 160.61" style="enable-background:new 0 0 784.3 160.61;" xml:space="preserve">
<style type="text/css">
	.st0{fill:#C1272D;}
	.st1{fill:none;}
	.st2{fill:#FFFFFF;}
</style>
<g>
	<g>
		<g>
			<path d="M131.5,55.28c0,44.66-22.74,74.23-59.58,93.9c-36.84-19.67-60.48-51.55-60.48-96.21c0-6.2,0.03-30.8,0-36.72
				c7.64,2.92,15.94,4.51,24.6,4.51c12.66,0,24.5-3.38,34.71-9.32c10.2,5.95,22.07,9.32,34.71,9.32c9.51,0,17.82-1.92,26.05-5.37
				C131.5,27.18,131.5,48.78,131.5,55.28z"/>
			<path class="st0" d="M71.92,150.61c-0.23,0-0.46-0.06-0.68-0.17C31.18,129.05,10,95.34,10,52.97l0-8.11
				c0.01-9.66,0.02-24.25,0-28.6c0-0.47,0.23-0.92,0.62-1.19c0.39-0.27,0.89-0.33,1.33-0.16c7.68,2.93,15.78,4.42,24.08,4.42
				c11.98,0,23.74-3.16,33.99-9.13c0.45-0.26,1-0.26,1.44,0c10.25,5.97,22,9.13,33.99,9.13c8.83,0,16.93-1.67,25.5-5.26
				c0.44-0.18,0.95-0.14,1.35,0.13c0.4,0.27,0.64,0.71,0.64,1.19v39.89c0,42.35-19.74,73.48-60.34,95.16
				C72.38,150.55,72.15,150.61,71.92,150.61z M12.87,18.3c0.01,5.84,0,18.09,0,26.56l0,8.11c0,41.01,20.42,73.7,59.05,94.58
				c39.13-21.12,58.15-51.3,58.15-92.27V17.52c-8.21,3.19-16.08,4.68-24.62,4.68c-12.21,0-24.19-3.15-34.71-9.11
				c-10.51,5.96-22.5,9.11-34.71,9.11C28.08,22.19,20.3,20.88,12.87,18.3z"/>
		</g>
		<g>
			<path class="st0" d="M82.98,43.45c-3.25,0-5.9-2.64-5.9-5.9s2.64-5.9,5.9-5.9s5.9,2.64,5.9,5.9S86.23,43.45,82.98,43.45z
				 M82.98,34.52c-1.67,0-3.03,1.36-3.03,3.03c0,1.67,1.36,3.03,3.03,3.03s3.03-1.36,3.03-3.03C86.01,35.88,84.65,34.52,82.98,34.52
				z"/>
		</g>
		<g>
			<path class="st0" d="M114.04,67.23c-3.25,0-5.9-2.64-5.9-5.9c0-3.25,2.64-5.9,5.9-5.9s5.9,2.64,5.9,5.9
				C119.93,64.59,117.29,67.23,114.04,67.23z M114.04,58.31c-1.67,0-3.03,1.36-3.03,3.03c0,1.67,1.36,3.03,3.03,3.03
				s3.03-1.36,3.03-3.03C117.06,59.66,115.71,58.31,114.04,58.31z"/>
		</g>
		<g>
			<path class="st0" d="M27.25,86.2c-3.25,0-5.9-2.64-5.9-5.9c0-3.25,2.64-5.9,5.9-5.9s5.9,2.64,5.9,5.9
				C33.14,83.56,30.5,86.2,27.25,86.2z M27.25,77.28c-1.67,0-3.03,1.36-3.03,3.03c0,1.67,1.36,3.03,3.03,3.03s3.03-1.36,3.03-3.03
				C30.27,78.64,28.92,77.28,27.25,77.28z"/>
		</g>
		<g>
			<path class="st1" d="M75.49,108.04c0,1.67,1.36,3.03,3.03,3.03c1.67,0,3.03-1.36,3.03-3.03c0-1.67-1.36-3.03-3.03-3.03
				C76.85,105.01,75.49,106.37,75.49,108.04z"/>
			<path class="st1" d="M66.19,74.41c0.31,0,0.62,0.05,0.92,0.09C66.81,74.45,66.5,74.41,66.19,74.41z"/>
			<path class="st1" d="M65.27,74.5c0.3-0.05,0.6-0.09,0.92-0.09C65.87,74.41,65.57,74.45,65.27,74.5z"/>
			<path class="st1" d="M78.52,102.15c0.33,0,0.65,0.04,0.97,0.1C79.17,102.19,78.85,102.15,78.52,102.15z"/>
			<path class="st1" d="M77.6,102.24c0.3-0.05,0.6-0.09,0.91-0.09C78.2,102.15,77.9,102.18,77.6,102.24z"/>
			<path class="st1" d="M75.49,15.53v9.5l-0.28,0.85l-5.27,7.13v9.21l9.54,10.84l0.36,0.95v48.29c2.62,0.6,4.58,2.94,4.58,5.73
				c0,3.25-2.64,5.9-5.9,5.9c-3.25,0-5.9-2.64-5.9-5.9c0-2.71,1.85-4.98,4.35-5.66V54.56l-9.54-10.84l-0.36-0.95V32.55l0.28-0.85
				l5.27-7.13V14.11c-0.63-0.33-1.26-0.67-1.88-1.03c-3.87,2.2-7.95,4.01-12.16,5.42v27.66l8.71,10.43l0.33,0.92v17.09h0
				c2.56,0.64,4.46,2.94,4.46,5.7c0,3.25-2.64,5.9-5.9,5.9c-3.25,0-5.9-2.64-5.9-5.9c0-2.75,1.91-5.05,4.46-5.7h0V58.04l-8.71-10.43
				l-0.33-0.92V19.4c-6.36,1.84-12.98,2.79-19.68,2.79c-7.95,0-15.73-1.31-23.16-3.89c0.01,5.84,0,18.09,0,26.56l0,8.11
				c0,41.01,20.42,73.7,59.05,94.58c39.13-21.12,58.15-51.3,58.15-92.27V17.52c-8.21,3.19-16.08,4.68-24.62,4.68
				C95.04,22.19,84.8,19.9,75.49,15.53z"/>
			<path class="st1" d="M66.19,77.28c-1.67,0-3.03,1.36-3.03,3.03c0,1.67,1.36,3.03,3.03,3.03c1.67,0,3.03-1.36,3.03-3.03
				C69.21,78.64,67.86,77.28,66.19,77.28z"/>
			<path class="st2" d="M79.49,102.24c-0.32-0.05-0.64-0.1-0.97-0.1c-0.31,0-0.61,0.05-0.91,0.09c-0.21,0.04-0.43,0.08-0.63,0.14
				l0,0c-2.5,0.69-4.35,2.95-4.35,5.66c0,3.25,2.64,5.9,5.9,5.9c3.25,0,5.9-2.64,5.9-5.9c0-2.8-1.96-5.13-4.58-5.73l0,0
				C79.72,102.28,79.6,102.26,79.49,102.24z M81.54,108.04c0,1.67-1.36,3.03-3.03,3.03c-1.67,0-3.03-1.36-3.03-3.03
				c0-1.67,1.36-3.03,3.03-3.03C80.19,105.01,81.54,106.37,81.54,108.04z"/>
			<path class="st2" d="M67.35,31.7l-0.28,0.85v10.22l0.36,0.95l9.54,10.84v47.82l0,0c0.21-0.06,0.42-0.1,0.63-0.14
				c0.3-0.05,0.6-0.09,0.91-0.09c0.33,0,0.65,0.04,0.97,0.1c0.12,0.02,0.24,0.04,0.35,0.06l0,0V54.02l-0.36-0.95l-9.54-10.84v-9.21
				l5.27-7.13l0.28-0.85v-9.5c-0.97-0.45-1.92-0.92-2.87-1.42v10.45L67.35,31.7z"/>
			<path class="st2" d="M66.19,74.41c-0.31,0-0.62,0.05-0.92,0.09c-0.17,0.03-0.35,0.06-0.51,0.1c-2.56,0.64-4.46,2.94-4.46,5.7
				c0,3.25,2.64,5.9,5.9,5.9c3.25,0,5.9-2.64,5.9-5.9c0-2.75-1.91-5.05-4.46-5.7c-0.17-0.04-0.34-0.07-0.51-0.1
				C66.8,74.46,66.5,74.41,66.19,74.41z M66.19,83.33c-1.67,0-3.03-1.36-3.03-3.03c0-1.67,1.36-3.03,3.03-3.03
				c1.67,0,3.03,1.36,3.03,3.03C69.21,81.97,67.86,83.33,66.19,83.33z"/>
			<path class="st2" d="M56.04,47.61l8.71,10.43v16.57h0c0.17-0.04,0.34-0.07,0.51-0.1c0.3-0.05,0.6-0.09,0.92-0.09
				c0.32,0,0.62,0.04,0.92,0.09c0.17,0.03,0.35,0.06,0.51,0.1h0V57.52l-0.33-0.92l-8.71-10.43V18.51c-0.95,0.32-1.91,0.61-2.87,0.89
				v27.29L56.04,47.61z"/>
		</g>
		<g>
			<path class="st1" d="M67,128.42c0.02-0.03,0.05-0.06,0.07-0.09C67.04,128.36,67.02,128.39,67,128.42z"/>
			<path class="st1" d="M71.74,134.91c1.67,0,3.03-1.36,3.03-3.03c0-1.67-1.36-3.03-3.03-3.03c-1.67,0-3.03,1.36-3.03,3.03
				C68.71,133.55,70.07,134.91,71.74,134.91z"/>
			<path class="st1" d="M66.43,129.36c0.09-0.18,0.18-0.36,0.29-0.53C66.61,129.01,66.52,129.18,66.43,129.36z"/>
			<path class="st1" d="M70.74,13.09c-6.42,3.64-13.38,6.22-20.6,7.68v36.22l5.69,6.7l0.34,0.93v54.06L68,127.36l0,0
				c1.02-0.85,2.31-1.38,3.74-1.38c3.25,0,5.9,2.64,5.9,5.9c0,3.25-2.64,5.9-5.9,5.9c-3.25,0-5.9-2.64-5.9-5.9
				c0-0.79,0.16-1.54,0.44-2.22l-12.41-9.1l-0.59-1.16V65.15l-5.69-6.7l-0.34-0.93V21.3c-3.7,0.59-7.46,0.9-11.24,0.9
				c-7.95,0-15.73-1.31-23.16-3.89c0.01,5.84,0,18.09,0,26.56l0,8.11c0,41.01,20.42,73.7,59.05,94.58
				c39.13-21.12,58.15-51.3,58.15-92.27V17.52c-8.21,3.19-16.08,4.68-24.62,4.68C93.23,22.19,81.25,19.05,70.74,13.09z"/>
			<path class="st2" d="M67.07,128.33c-0.02,0.03-0.05,0.06-0.07,0.09c-0.1,0.13-0.19,0.28-0.28,0.42c-0.1,0.17-0.2,0.35-0.29,0.53
				c-0.05,0.1-0.1,0.19-0.15,0.3l0,0c-0.28,0.69-0.44,1.44-0.44,2.22c0,3.25,2.64,5.9,5.9,5.9c3.25,0,5.9-2.64,5.9-5.9
				c0-3.25-2.64-5.9-5.9-5.9c-1.43,0-2.72,0.53-3.74,1.38C67.65,127.65,67.34,127.98,67.07,128.33z M71.74,128.86
				c1.67,0,3.03,1.36,3.03,3.03c0,1.67-1.36,3.03-3.03,3.03c-1.67,0-3.03-1.36-3.03-3.03C68.71,130.21,70.07,128.86,71.74,128.86z"
				/>
			<path class="st2" d="M47.61,58.45l5.69,6.7v54.26l0.59,1.16l12.41,9.1l0,0c0.04-0.1,0.1-0.2,0.15-0.3
				c0.09-0.18,0.18-0.36,0.29-0.53c0.09-0.14,0.18-0.29,0.28-0.42c0.02-0.03,0.05-0.06,0.07-0.09c0.28-0.35,0.59-0.68,0.93-0.97l0,0
				l-11.84-8.69V64.62l-0.34-0.93l-5.69-6.7V20.77c-0.95,0.19-1.91,0.37-2.87,0.53v36.22L47.61,58.45z"/>
		</g>
		<g>
			<path class="st1" d="M43.15,91.66c0.31,0,0.62,0.05,0.92,0.09C43.77,91.7,43.47,91.66,43.15,91.66z"/>
			<path class="st1" d="M43.15,94.53c-1.67,0-3.03,1.36-3.03,3.03c0,1.67,1.36,3.03,3.03,3.03c1.67,0,3.03-1.36,3.03-3.03
				C46.18,95.88,44.82,94.53,43.15,94.53z"/>
			<path class="st1" d="M42.24,91.75c0.3-0.05,0.6-0.09,0.92-0.09C42.84,91.66,42.54,91.7,42.24,91.75z"/>
			<path class="st1" d="M70.74,13.09c-9.91,5.62-21.12,8.73-32.61,9.07v45.21l6.08,6.69l0.37,0.96v16.83h0
				c2.56,0.64,4.46,2.94,4.46,5.7c0,3.25-2.64,5.9-5.9,5.9c-3.25,0-5.9-2.64-5.9-5.9c0-2.75,1.91-5.05,4.46-5.7h0V75.58l-6.08-6.69
				l-0.37-0.96V22.18c-7.69-0.08-15.21-1.38-22.39-3.88c0.01,5.84,0,18.09,0,26.56l0,8.11c0,41.01,20.42,73.7,59.05,94.58
				c39.13-21.12,58.15-51.3,58.15-92.27V17.52c-8.21,3.19-16.08,4.68-24.62,4.68C93.23,22.19,81.25,19.05,70.74,13.09z"/>
			<path class="st2" d="M43.15,91.66c-0.31,0-0.62,0.05-0.92,0.09c-0.17,0.03-0.35,0.06-0.51,0.1c-2.56,0.64-4.46,2.94-4.46,5.7
				c0,3.25,2.64,5.9,5.9,5.9c3.25,0,5.9-2.64,5.9-5.9c0-2.75-1.91-5.05-4.46-5.7c-0.17-0.04-0.34-0.07-0.51-0.1
				C43.77,91.7,43.47,91.66,43.15,91.66z M43.15,100.58c-1.67,0-3.03-1.36-3.03-3.03c0-1.67,1.36-3.03,3.03-3.03
				c1.67,0,3.03,1.36,3.03,3.03C46.18,99.22,44.82,100.58,43.15,100.58z"/>
			<path class="st2" d="M35.64,68.89l6.08,6.69v16.27h0c0.17-0.04,0.34-0.07,0.51-0.1c0.3-0.05,0.6-0.09,0.92-0.09
				c0.32,0,0.62,0.04,0.92,0.09c0.17,0.03,0.35,0.06,0.51,0.1h0V75.03l-0.37-0.96l-6.08-6.69V22.16c-0.7,0.02-1.4,0.03-2.1,0.03
				c-0.26,0-0.51-0.01-0.77-0.02v45.75L35.64,68.89z"/>
		</g>
		<g>
			<path class="st1" d="M25.66,43.84c-1.67,0-3.03,1.36-3.03,3.03c0,1.67,1.36,3.03,3.03,3.03c1.67,0,3.03-1.36,3.03-3.03
				C28.69,45.2,27.33,43.84,25.66,43.84z"/>
			<path class="st1" d="M25.66,40.98c0.31,0,0.62,0.05,0.92,0.09C26.28,41.02,25.98,40.98,25.66,40.98z"/>
			<path class="st1" d="M24.75,41.07c0.3-0.05,0.6-0.09,0.92-0.09C25.35,40.98,25.05,41.02,24.75,41.07z"/>
			<path class="st1" d="M70.74,13.09c-10.51,5.96-22.5,9.11-34.71,9.11c-3.01,0-5.99-0.19-8.93-0.56v19.54h0
				c2.56,0.64,4.46,2.94,4.46,5.7c0,3.25-2.64,5.9-5.9,5.9c-3.25,0-5.9-2.64-5.9-5.9c0-2.75,1.91-5.05,4.46-5.7h0V21.21
				c-3.86-0.65-7.65-1.62-11.36-2.91c0.01,5.84,0,18.09,0,26.56l0,8.11c0,41.01,20.42,73.7,59.05,94.58
				c39.13-21.12,58.15-51.3,58.15-92.27V17.52c-8.21,3.19-16.08,4.68-24.62,4.68C93.23,22.19,81.25,19.05,70.74,13.09z"/>
			<path class="st2" d="M25.66,40.98c-0.31,0-0.62,0.05-0.92,0.09c-0.17,0.03-0.35,0.06-0.51,0.1c-2.56,0.64-4.46,2.94-4.46,5.7
				c0,3.25,2.64,5.9,5.9,5.9c3.25,0,5.9-2.64,5.9-5.9c0-2.75-1.91-5.05-4.46-5.7c-0.17-0.04-0.34-0.07-0.51-0.1
				C26.28,41.02,25.98,40.98,25.66,40.98z M25.66,49.9c-1.67,0-3.03-1.36-3.03-3.03c0-1.67,1.36-3.03,3.03-3.03
				c1.67,0,3.03,1.36,3.03,3.03C28.69,48.54,27.33,49.9,25.66,49.9z"/>
			<path class="st2" d="M24.23,41.17c0.17-0.04,0.34-0.07,0.51-0.1c0.3-0.05,0.6-0.09,0.92-0.09c0.32,0,0.62,0.04,0.92,0.09
				c0.17,0.03,0.35,0.06,0.51,0.1h0V21.63c-0.96-0.12-1.92-0.26-2.87-0.42L24.23,41.17L24.23,41.17z"/>
			<path class="st0" d="M25.66,18.51c-0.01,0-0.02,0.01-0.04,0.01c0.11,0.02,0.22,0.04,0.34,0.05
				C25.87,18.55,25.77,18.51,25.66,18.51z"/>
		</g>
	</g>
	<g>
		<g>
			<path d="M226.96,31.8h-21.24l-57.48,100.48h30l10.67-20h32.51l5.33,20h29.87L226.96,31.8z M215.18,88.6h-14.1l9.53-17.93
				L215.18,88.6z"/>
			<path d="M328.53,80.84c-2.01-2.16-4.43-3.97-7.18-5.37c-2.56-1.3-5.22-2.43-7.92-3.36c-2.64-0.91-5.28-1.73-7.84-2.45
				c-2.34-0.66-4.41-1.42-6.15-2.27c-1.46-0.71-2.57-1.57-3.29-2.55c-0.54-0.73-0.73-1.74-0.57-3c0.18-1.21,0.61-2.2,1.3-3.01
				c0.82-0.95,1.76-1.7,2.88-2.28c1.22-0.63,2.56-1.1,3.97-1.4c1.48-0.31,2.89-0.47,4.18-0.47c2.2,0,4.54,0.45,6.94,1.34
				c2.16,0.8,3.73,1.97,4.8,3.57l2.01,3.01l21.25-20.21l-2.15-2.2c-3.8-3.9-8.37-6.72-13.59-8.37c-5.03-1.6-10.44-2.41-16.05-2.41
				c-4.88,0-9.78,0.69-14.56,2.05c-4.83,1.37-9.31,3.47-13.3,6.22c-4.04,2.79-7.47,6.3-10.21,10.42c-2.78,4.19-4.57,9.1-5.34,14.6
				c-0.8,5.87-0.17,10.76,1.87,14.52c1.97,3.64,4.72,6.62,8.15,8.84c3.24,2.1,6.85,3.78,10.73,5.01c3.55,1.13,6.92,2.28,9.99,3.42
				c2.78,1.03,5.07,2.28,6.79,3.7c0.82,0.68,1.61,1.67,1.26,3.91c-0.18,1.16-0.6,2.12-1.28,2.95c-0.77,0.94-1.71,1.69-2.87,2.31
				c-1.27,0.67-2.67,1.18-4.18,1.52c-4.71,1.06-9.03,0.51-12.8-1.46c-2.51-1.31-4.46-3.12-5.96-5.52l-1.97-3.15l-22.12,20.92
				l2.11,2.21c4.3,4.49,9.21,7.79,14.6,9.81c5.3,1.99,11.26,2.99,17.73,2.99c5.13,0,10.18-0.66,15-1.97
				c4.9-1.33,9.39-3.41,13.34-6.18c4-2.79,7.41-6.35,10.14-10.57c2.77-4.27,4.56-9.31,5.32-14.93c0.69-4.51,0.54-8.47-0.42-11.78
				C332.18,85.92,330.62,83.09,328.53,80.84z"/>
			<path d="M414.58,82.51c4.46-5.09,7.26-11.34,8.32-18.57c0.87-6,0.5-11.16-1.11-15.33c-1.63-4.22-4.17-7.63-7.56-10.15
				c-3.27-2.42-7.24-4.17-11.82-5.19c-4.38-0.98-9.13-1.47-14.13-1.47h-39.18l-14.05,100.48h26.94l5.2-37.73h5.53l14.53,37.73h31.77
				l-18.83-40.8C406.01,89.8,410.84,86.79,414.58,82.51z M372.68,55.48h10.95c1.72,0,3.48,0.12,5.25,0.37
				c1.55,0.22,2.89,0.62,3.99,1.21c0.91,0.48,1.6,1.16,2.11,2.07c0.45,0.8,0.56,2.12,0.31,3.83c-0.27,1.93-0.85,3.39-1.74,4.34
				c-1.02,1.09-2.17,1.86-3.52,2.37c-1.49,0.56-3.15,0.9-4.93,1.01c-2.01,0.13-3.94,0.19-5.74,0.19h-8.78L372.68,55.48z"/>
		</g>
		<g>
			<polygon points="447.77,36.48 446.62,45.13 478.88,45.13 466.8,131.17 466.75,131.54 476.21,131.54 488.34,45.13 520.61,45.13 
				521.76,36.48 			"/>
			<polygon points="592.88,45.13 594.03,36.48 535.64,36.48 522.35,131.54 582.88,131.54 584.03,122.88 532.97,122.88 538.07,86.73 
				583.94,86.73 585.1,78.08 539.23,78.08 543.94,45.13 			"/>
			<path d="M671.4,110.74c-2.02,2.55-4.29,4.75-6.74,6.54c-2.46,1.8-5.04,3.31-7.67,4.5c-2.64,1.19-5.28,2.08-7.87,2.65
				c-2.58,0.57-5.09,0.86-7.46,0.86c-6.06,0-11.44-1.07-16-3.17c-4.55-2.1-8.33-5.03-11.21-8.7c-2.89-3.68-4.94-8.08-6.07-13.07
				c-1.14-5-1.32-10.48-0.53-16.28c0.79-5.81,2.49-11.29,5.04-16.3c2.55-5.01,5.84-9.42,9.8-13.11c3.95-3.69,8.59-6.63,13.77-8.74
				c5.18-2.11,10.88-3.18,16.94-3.18c4.64,0,9.17,1.04,13.46,3.1c4.27,2.05,7.58,5.25,9.85,9.53l0.18,0.34l8.55-6.41l-0.16-0.25
				c-3.4-5.37-7.8-9.24-13.08-11.52c-5.26-2.27-11.18-3.43-17.6-3.43c-7.2,0-14.06,1.26-20.39,3.76
				c-6.32,2.49-12.03,5.99-16.97,10.39c-4.94,4.41-9.09,9.71-12.34,15.76c-3.25,6.05-5.43,12.77-6.5,19.98
				c-0.98,7.21-0.71,13.96,0.81,20.06c1.52,6.11,4.16,11.45,7.87,15.87c3.71,4.42,8.46,7.91,14.12,10.36
				c5.66,2.45,12.19,3.69,19.4,3.69c6.95,0,13.69-1.35,20.06-4.03c6.37-2.67,12.31-7.14,17.65-13.29l0.22-0.25l-6.91-5.9
				L671.4,110.74z"/>
			<polygon points="764.97,36.48 759.1,78.08 706.96,78.08 712.83,36.48 703.37,36.48 690.08,131.54 699.53,131.54 705.8,86.73 
				757.95,86.73 751.68,131.54 761.14,131.54 774.43,36.48 			"/>
		</g>
	</g>
</g>
</svg>
