<?xml version="1.0" encoding="utf-8"?>
<!-- Generator: Adobe Illustrator 26.0.0, SVG Export Plug-In . SVG Version: 6.00 Build 0)  -->
<svg version="1.1" id="Layer_1" xmlns="http://www.w3.org/2000/svg" xmlns:xlink="http://www.w3.org/1999/xlink" x="0px" y="0px"
	 viewBox="0 0 82.86 118" style="enable-background:new 0 0 82.86 118;" xml:space="preserve">
<style type="text/css">
	.st0{fill:#E4E7EF;}
	.st1{fill:#FFFFFF;}
</style>
<path class="st0" d="M48.63,7.83l-7.02-5.68l-7.02,5.68c-11.22,9.06-17.73,22.7-17.73,37.12v29.56h49.47V44.93
	C66.33,30.52,59.83,16.89,48.63,7.83z M41.59,68.14c-2.66,0-4.82-2.16-4.82-4.83c0-2.66,2.16-4.82,4.82-4.82
	c2.67,0,4.83,2.16,4.83,4.82C46.42,65.98,44.26,68.14,41.59,68.14z M41.59,53.6c-5.33,0-9.65-4.33-9.65-9.66s4.32-9.65,9.65-9.65
	c5.34,0,9.66,4.32,9.66,9.65S46.93,53.6,41.59,53.6z"/>
<path class="st1" d="M46.82,25l-5.21-4.22L36.39,25c-8.32,6.73-13.16,16.86-13.16,27.56v21.95h36.73V52.54
	C59.96,41.85,55.13,31.73,46.82,25z M41.59,68.14c-2.66,0-4.82-2.16-4.82-4.83c0-2.66,2.16-4.82,4.82-4.82
	c2.67,0,4.83,2.16,4.83,4.82C46.42,65.98,44.26,68.14,41.59,68.14z M41.59,53.6c-5.33,0-9.65-4.33-9.65-9.66s4.32-9.65,9.65-9.65
	c5.34,0,9.66,4.32,9.66,9.65S46.93,53.6,41.59,53.6z"/>
<path class="st1" d="M66.77,81.51h-49.8c-3.27,0-5.91-2.65-5.91-5.91l0,0c0-3.27,2.65-5.91,5.91-5.91h49.8
	c3.27,0,5.91,2.65,5.91,5.91l0,0C72.69,78.86,70.04,81.51,66.77,81.51z"/>
<polygon class="st1" points="20.82,103.66 19.4,102.25 26.68,94.97 26.68,78.63 28.68,78.63 28.68,95.8 "/>
<rect x="33.77" y="78.63" class="st1" width="2" height="29.61"/>
<polygon class="st1" points="61.19,110.34 43.42,92.57 43.42,78.63 45.42,78.63 45.42,91.75 62.6,108.93 "/>
<rect x="56.96" y="80.13" class="st1" width="2" height="10.66"/>
<path class="st1" d="M34.77,115.99c-2.41,0-4.37-1.96-4.37-4.38c0-2.41,1.96-4.38,4.37-4.38c2.41,0,4.38,1.96,4.38,4.38
	C39.15,114.03,37.18,115.99,34.77,115.99z M34.77,109.24c-1.31,0-2.38,1.07-2.38,2.38c0,1.31,1.07,2.38,2.38,2.38
	c1.31,0,2.38-1.07,2.38-2.38C37.15,110.31,36.08,109.24,34.77,109.24z"/>
<path class="st1" d="M57.96,97.81c-2.41,0-4.38-1.96-4.38-4.38c0-2.41,1.96-4.38,4.38-4.38c2.41,0,4.38,1.96,4.38,4.38
	C62.34,95.85,60.38,97.81,57.96,97.81z M57.96,91.06c-1.31,0-2.38,1.07-2.38,2.38c0,1.31,1.07,2.38,2.38,2.38
	c1.31,0,2.38-1.07,2.38-2.38C60.34,92.13,59.27,91.06,57.96,91.06z"/>
<path class="st1" d="M18.04,109.75c-2.41,0-4.38-1.96-4.38-4.38c0-2.41,1.96-4.37,4.38-4.37s4.38,1.96,4.38,4.37
	C22.42,107.79,20.46,109.75,18.04,109.75z M18.04,103.01c-1.31,0-2.38,1.07-2.38,2.37c0,1.31,1.07,2.38,2.38,2.38
	c1.31,0,2.38-1.07,2.38-2.38C20.42,104.07,19.35,103.01,18.04,103.01z"/>
<path class="st1" d="M63.86,115.99c-2.41,0-4.38-1.96-4.38-4.38c0-2.41,1.96-4.38,4.38-4.38s4.38,1.96,4.38,4.38
	C68.24,114.03,66.28,115.99,63.86,115.99z M63.86,109.24c-1.31,0-2.38,1.07-2.38,2.38c0,1.31,1.07,2.38,2.38,2.38
	c1.31,0,2.38-1.07,2.38-2.38C66.24,110.31,65.17,109.24,63.86,109.24z"/>
<path class="st0" d="M12.94,51.65v15.67H1.97C1.97,67.31,2.01,51.65,12.94,51.65z"/>
<path class="st0" d="M70.47,51.65v15.67h10.97C81.45,67.31,81.41,51.65,70.47,51.65z"/>
</svg>
