<?xml version="1.0" encoding="utf-8"?>
<!-- Generator: Adobe Illustrator 26.0.0, SVG Export Plug-In . SVG Version: 6.00 Build 0)  -->
<svg version="1.1" id="Layer_1" xmlns="http://www.w3.org/2000/svg" xmlns:xlink="http://www.w3.org/1999/xlink" x="0px" y="0px"
	 viewBox="0 0 693.7 790.8" style="enable-background:new 0 0 693.7 790.8;" xml:space="preserve">
<style type="text/css">
	.st0{fill:#CCCCCC;}
	.st1{fill:#B3B3B3;}
	.st2{fill:#FFFFFF;}
	.st3{fill:none;}
	.st4{fill:#461BFF;}
	.st5{fill:#C1272D;}
</style>
<g>
	<path class="st0" d="M675.9,258.1c0,244.3-124.4,406.1-326,513.7C148.4,664.2,19,489.8,19,245.5c0-33.9,0.2-168.5,0-200.9
		c41.8,16,87.2,24.7,134.6,24.7c69.2,0,134.1-18.5,189.9-51c55.8,32.5,120.8,51,189.9,51c52,0,97.5-10.5,142.5-29.4
		C675.9,104.4,675.9,222.6,675.9,258.1z"/>
	<path class="st1" d="M349.9,779.7c-1.3,0-2.5-0.3-3.7-0.9C127,661.7,11.2,477.3,11.2,245.5l0-44.4c0-52.8,0.1-132.7,0-156.5
		c0-2.6,1.3-5,3.4-6.5c2.1-1.5,4.8-1.8,7.3-0.9c42,16,86.3,24.2,131.8,24.2c65.6,0,129.9-17.3,185.9-49.9c2.4-1.4,5.5-1.4,7.9,0
		c56.1,32.7,120.4,49.9,185.9,49.9c48.3,0,92.6-9.1,139.5-28.8c2.4-1,5.2-0.7,7.4,0.7c2.2,1.5,3.5,3.9,3.5,6.5v218.2
		c0,231.7-108,402-330.1,520.6C352.4,779.3,351.2,779.7,349.9,779.7z M26.9,55.8c0.1,31.9,0,99,0,145.3l0,44.4
		c0,224.4,111.7,403.2,323.1,517.4C564,647.4,668,482.2,668,258.1V51.5c-44.9,17.4-88,25.6-134.7,25.6
		c-66.8,0-132.4-17.2-189.9-49.8c-57.5,32.6-123.1,49.8-189.9,49.8C110.1,77.1,67.5,69.9,26.9,55.8z"/>
</g>
<g>
	<path class="st2" d="M410.4,193.4c-17.8,0-32.3-14.5-32.3-32.3s14.5-32.3,32.3-32.3c17.8,0,32.3,14.5,32.3,32.3
		S428.2,193.4,410.4,193.4z M410.4,144.6c-9.1,0-16.6,7.4-16.6,16.6c0,9.1,7.4,16.6,16.6,16.6c9.1,0,16.6-7.4,16.6-16.6
		C427,152,419.5,144.6,410.4,144.6z"/>
</g>
<g>
	<path class="st2" d="M580.3,323.5c-17.8,0-32.3-14.5-32.3-32.3c0-17.8,14.5-32.3,32.3-32.3s32.3,14.5,32.3,32.3
		C612.6,309,598.1,323.5,580.3,323.5z M580.3,274.7c-9.1,0-16.6,7.4-16.6,16.6c0,9.1,7.4,16.6,16.6,16.6s16.6-7.4,16.6-16.6
		C596.9,282.1,589.5,274.7,580.3,274.7z"/>
</g>
<g>
	<path class="st2" d="M105.5,427.3c-17.8,0-32.3-14.5-32.3-32.3c0-17.8,14.5-32.3,32.3-32.3s32.3,14.5,32.3,32.3
		C137.8,412.8,123.3,427.3,105.5,427.3z M105.5,378.5c-9.1,0-16.6,7.4-16.6,16.6c0,9.1,7.4,16.6,16.6,16.6s16.6-7.4,16.6-16.6
		C122.1,385.9,114.6,378.5,105.5,378.5z"/>
</g>
<path class="st3" d="M369.4,546.8c0,9.1,7.4,16.6,16.6,16.6c9.1,0,16.6-7.4,16.6-16.6c0-9.1-7.4-16.6-16.6-16.6
	C376.9,530.2,369.4,537.6,369.4,546.8z"/>
<path class="st3" d="M318.5,362.8c1.7,0,3.4,0.2,5,0.5C321.9,363,320.3,362.8,318.5,362.8z"/>
<path class="st3" d="M313.5,363.3c1.6-0.3,3.3-0.5,5-0.5C316.8,362.8,315.2,363,313.5,363.3z"/>
<path class="st3" d="M386,514.5c1.8,0,3.6,0.2,5.3,0.5C389.6,514.7,387.8,514.5,386,514.5z"/>
<path class="st3" d="M381,515c1.6-0.3,3.3-0.5,5-0.5C384.3,514.5,382.6,514.7,381,515z"/>
<path class="st3" d="M369.4,40.7v52l-1.5,4.7l-28.8,39v50.4l52.2,59.3l2,5.2v264.2c14.3,3.3,25,16.1,25,31.4
	c0,17.8-14.5,32.3-32.3,32.3c-17.8,0-32.3-14.5-32.3-32.3c0-14.8,10.1-27.2,23.8-31V254.2l-52.2-59.3l-2-5.2v-55.9l1.5-4.7l28.8-39
	V32.9c-3.5-1.8-6.9-3.7-10.3-5.6c-21.2,12-43.5,21.9-66.5,29.7v151.3l47.6,57.1l1.8,5v93.5h0c14,3.5,24.4,16.1,24.4,31.2
	c0,17.8-14.5,32.3-32.3,32.3c-17.8,0-32.3-14.5-32.3-32.3c0-15.1,10.4-27.6,24.4-31.2h0v-90.6l-47.6-57.1l-1.8-5V61.8
	c-34.8,10.1-71,15.3-107.7,15.3c-43.5,0-86.1-7.2-126.7-21.3c0.1,31.9,0,99,0,145.3l0,44.4c0,224.4,111.7,403.2,323.1,517.4
	C564,647.4,668,482.2,668,258.1V51.5c-44.9,17.4-88,25.6-134.7,25.6C476.4,77.1,420.4,64.6,369.4,40.7z"/>
<path class="st3" d="M318.5,378.5c-9.1,0-16.6,7.4-16.6,16.6c0,9.1,7.4,16.6,16.6,16.6c9.1,0,16.6-7.4,16.6-16.6
	C335.1,385.9,327.7,378.5,318.5,378.5z"/>
<path d="M391.3,515c-1.7-0.3-3.5-0.5-5.3-0.5c-1.7,0-3.4,0.2-5,0.5c-1.2,0.2-2.3,0.5-3.5,0.8l0,0c-13.7,3.7-23.8,16.1-23.8,31
	c0,17.8,14.5,32.3,32.3,32.3c17.8,0,32.3-14.5,32.3-32.3c0-15.3-10.7-28.1-25-31.4l0,0C392.6,515.3,391.9,515.2,391.3,515z
	 M402.6,546.8c0,9.1-7.4,16.6-16.6,16.6c-9.1,0-16.6-7.4-16.6-16.6c0-9.1,7.4-16.6,16.6-16.6C395.1,530.2,402.6,537.6,402.6,546.8z"
	/>
<path class="st4" d="M324.9,129.1l-1.5,4.7v55.9l2,5.2l52.2,59.3v261.6l0,0c1.1-0.3,2.3-0.6,3.5-0.8c1.6-0.3,3.3-0.5,5-0.5
	c1.8,0,3.6,0.2,5.3,0.5c0.6,0.1,1.3,0.2,1.9,0.3l0,0V251.2l-2-5.2l-52.2-59.3v-50.4l28.8-39l1.5-4.7v-52c-5.3-2.5-10.5-5-15.7-7.8
	v57.2L324.9,129.1z"/>
<path d="M318.5,362.8c-1.7,0-3.4,0.2-5,0.5c-0.9,0.2-1.9,0.3-2.8,0.6c-14,3.5-24.4,16.1-24.4,31.2c0,17.8,14.5,32.3,32.3,32.3
	c17.8,0,32.3-14.5,32.3-32.3c0-15.1-10.4-27.6-24.4-31.2c-0.9-0.2-1.9-0.4-2.8-0.6C321.9,363,320.3,362.8,318.5,362.8z M318.5,411.6
	c-9.1,0-16.6-7.4-16.6-16.6c0-9.1,7.4-16.6,16.6-16.6c9.1,0,16.6,7.4,16.6,16.6C335.1,404.2,327.7,411.6,318.5,411.6z"/>
<path class="st4" d="M263.1,216.1l47.6,57.1v90.6h0c0.9-0.2,1.9-0.4,2.8-0.6c1.6-0.3,3.3-0.5,5-0.5s3.4,0.2,5,0.5
	c0.9,0.2,1.9,0.3,2.8,0.6h0v-93.5l-1.8-5l-47.6-57.1V56.9c-5.2,1.7-10.4,3.4-15.7,4.9v149.3L263.1,216.1z"/>
<path class="st3" d="M323,658.2c0.1-0.2,0.3-0.3,0.4-0.5C323.2,657.9,323.1,658.1,323,658.2z"/>
<path class="st3" d="M348.9,693.8c9.1,0,16.6-7.4,16.6-16.6c0-9.1-7.4-16.6-16.6-16.6c-9.1,0-16.6,7.4-16.6,16.6
	C332.4,686.3,339.8,693.8,348.9,693.8z"/>
<path class="st3" d="M319.9,663.4c0.5-1,1-1.9,1.6-2.9C320.9,661.5,320.4,662.4,319.9,663.4z"/>
<path class="st3" d="M343.4,27.3c-35.1,19.9-73.2,34-112.7,42v198.2l31.1,36.7l1.9,5.1V605l64.8,47.5l0,0c5.6-4.6,12.7-7.5,20.5-7.5
	c17.8,0,32.3,14.5,32.3,32.3c0,17.8-14.5,32.3-32.3,32.3c-17.8,0-32.3-14.5-32.3-32.3c0-4.3,0.9-8.4,2.4-12.2l-67.9-49.8l-3.2-6.3
	V312.1l-31.1-36.7l-1.9-5.1V72.2c-20.2,3.2-40.8,4.9-61.5,4.9c-43.5,0-86.1-7.2-126.7-21.3c0.1,31.9,0,99,0,145.3l0,44.4
	c0,224.4,111.7,403.2,323.1,517.4C564,647.4,668,482.2,668,258.1V51.5c-44.9,17.4-88,25.6-134.7,25.6
	C466.5,77.1,401,59.9,343.4,27.3z"/>
<path d="M323.4,657.8c-0.1,0.2-0.3,0.3-0.4,0.5c-0.6,0.7-1,1.5-1.5,2.3c-0.6,0.9-1.1,1.9-1.6,2.9c-0.3,0.5-0.6,1.1-0.8,1.6l0,0
	c-1.5,3.8-2.4,7.9-2.4,12.2c0,17.8,14.5,32.3,32.3,32.3c17.8,0,32.3-14.5,32.3-32.3c0-17.8-14.5-32.3-32.3-32.3
	c-7.8,0-14.9,2.9-20.5,7.5C326.6,654,324.9,655.8,323.4,657.8z M348.9,660.6c9.1,0,16.6,7.4,16.6,16.6c0,9.1-7.4,16.6-16.6,16.6
	c-9.1,0-16.6-7.4-16.6-16.6C332.4,668.1,339.8,660.6,348.9,660.6z"/>
<path class="st4" d="M216.9,275.4l31.1,36.7v296.8l3.2,6.3l67.9,49.8l0,0c0.2-0.6,0.5-1.1,0.8-1.6c0.5-1,1-2,1.6-2.9
	c0.5-0.8,1-1.6,1.5-2.3c0.1-0.2,0.3-0.3,0.4-0.5c1.5-1.9,3.2-3.7,5.1-5.3l0,0L263.7,605V309.2l-1.9-5.1l-31.1-36.7V69.3
	c-5.2,1.1-10.4,2-15.7,2.9v198.2L216.9,275.4z"/>
<path class="st3" d="M192.5,457.1c1.7,0,3.4,0.2,5,0.5C195.9,457.3,194.3,457.1,192.5,457.1z"/>
<path class="st3" d="M192.5,472.8c-9.1,0-16.6,7.4-16.6,16.6c0,9.1,7.4,16.6,16.6,16.6c9.1,0,16.6-7.4,16.6-16.6
	C209.1,480.3,201.7,472.8,192.5,472.8z"/>
<path class="st3" d="M187.5,457.6c1.6-0.3,3.3-0.5,5-0.5C190.8,457.1,189.2,457.3,187.5,457.6z"/>
<path class="st3" d="M343.4,27.3C289.2,58,227.9,75.1,165.1,76.9v247.3l33.3,36.6l2,5.3v92.1h0c14,3.5,24.4,16.1,24.4,31.2
	c0,17.8-14.5,32.3-32.3,32.3c-17.8,0-32.3-14.5-32.3-32.3c0-15.1,10.4-27.6,24.4-31.2h0v-89l-33.3-36.6l-2-5.3V77
	c-42.1-0.4-83.2-7.5-122.5-21.2c0.1,31.9,0,99,0,145.3l0,44.4c0,224.4,111.7,403.2,323.1,517.4C564,647.4,668,482.2,668,258.1V51.5
	c-44.9,17.4-88,25.6-134.7,25.6C466.5,77.1,401,59.9,343.4,27.3z"/>
<path d="M192.5,457.1c-1.7,0-3.4,0.2-5,0.5c-0.9,0.2-1.9,0.3-2.8,0.6c-14,3.5-24.4,16.1-24.4,31.2c0,17.8,14.5,32.3,32.3,32.3
	c17.8,0,32.3-14.5,32.3-32.3c0-15.1-10.4-27.6-24.4-31.2c-0.9-0.2-1.9-0.4-2.8-0.6C195.9,457.4,194.3,457.1,192.5,457.1z
	 M192.5,505.9c-9.1,0-16.6-7.4-16.6-16.6c0-9.1,7.4-16.6,16.6-16.6c9.1,0,16.6,7.4,16.6,16.6C209.1,498.5,201.7,505.9,192.5,505.9z"
	/>
<path class="st4" d="M151.4,332.6l33.3,36.6v89h0c0.9-0.2,1.9-0.4,2.8-0.6c1.6-0.3,3.3-0.5,5-0.5s3.4,0.2,5,0.5
	c0.9,0.2,1.9,0.3,2.8,0.6h0v-92.1l-2-5.3l-33.3-36.6V76.9c-3.8,0.1-7.7,0.2-11.5,0.2c-1.4,0-2.8-0.1-4.2-0.1v250.3L151.4,332.6z"/>
<path class="st3" d="M96.9,195.6c-9.1,0-16.6,7.4-16.6,16.6c0,9.1,7.4,16.6,16.6,16.6c9.1,0,16.6-7.4,16.6-16.6
	C113.4,203,106,195.6,96.9,195.6z"/>
<path class="st3" d="M96.9,179.9c1.7,0,3.4,0.2,5,0.5C100.2,180.1,98.6,179.9,96.9,179.9z"/>
<path class="st3" d="M91.8,180.4c1.6-0.3,3.3-0.5,5-0.5C95.1,179.9,93.5,180.1,91.8,180.4z"/>
<path class="st3" d="M343.4,27.3c-57.5,32.6-123.1,49.8-189.9,49.8c-16.4,0-32.7-1-48.9-3.1v106.9h0c14,3.5,24.4,16.1,24.4,31.2
	c0,17.8-14.5,32.3-32.3,32.3c-17.8,0-32.3-14.5-32.3-32.3c0-15.1,10.4-27.6,24.4-31.2h0V71.7c-21.1-3.6-41.9-8.9-62.1-15.9
	c0.1,31.9,0,99,0,145.3l0,44.4c0,224.4,111.7,403.2,323.1,517.4C564,647.4,668,482.2,668,258.1V51.5c-44.9,17.4-88,25.6-134.7,25.6
	C466.5,77.1,401,59.9,343.4,27.3z"/>
<path d="M96.9,179.9c-1.7,0-3.4,0.2-5,0.5c-0.9,0.2-1.9,0.3-2.8,0.6c-14,3.5-24.4,16.1-24.4,31.2c0,17.8,14.5,32.3,32.3,32.3
	c17.8,0,32.3-14.5,32.3-32.3c0-15.1-10.4-27.6-24.4-31.2c-0.9-0.2-1.9-0.4-2.8-0.6C100.2,180.1,98.6,179.9,96.9,179.9z M96.9,228.7
	c-9.1,0-16.6-7.4-16.6-16.6c0-9.1,7.4-16.6,16.6-16.6c9.1,0,16.6,7.4,16.6,16.6C113.4,221.3,106,228.7,96.9,228.7z"/>
<path class="st4" d="M89,180.9c0.9-0.2,1.9-0.4,2.8-0.6c1.6-0.3,3.3-0.5,5-0.5c1.7,0,3.4,0.2,5,0.5c0.9,0.2,1.9,0.3,2.8,0.6h0V74
	c-5.3-0.7-10.5-1.4-15.7-2.3L89,180.9L89,180.9z"/>
<path class="st5" d="M96.9,56.9c-0.1,0-0.1,0-0.2,0c0.6,0.1,1.2,0.2,1.8,0.3C98,57.2,97.4,56.9,96.9,56.9z"/>
</svg>
